<svg width="72" height="72" viewBox="0 0 72 72" fill="none" xmlns="http://www.w3.org/2000/svg">
<g clip-path="url(#clip0_501_616)">
<path d="M59.625 60.75H56.25V55.125C56.25 54.2299 55.8944 53.3714 55.2615 52.7385C54.6285 52.1056 53.7701 51.75 52.875 51.75H49.5V46.125C49.5 45.2299 49.1444 44.3714 48.5115 43.7385C47.8785 43.1056 47.0201 42.75 46.125 42.75H1.125C0.826631 42.75 0.540483 42.8685 0.329505 43.0795C0.118526 43.2905 0 43.5766 0 43.875L0 70.875C0 71.1734 0.118526 71.4595 0.329505 71.6705C0.540483 71.8815 0.826631 72 1.125 72H61.875C62.1734 72 62.4595 71.8815 62.6705 71.6705C62.8815 71.4595 63 71.1734 63 70.875V64.125C63 63.2299 62.6444 62.3714 62.0115 61.7385C61.3785 61.1056 60.5201 60.75 59.625 60.75V60.75ZM31.5 45H46.125C46.4234 45 46.7095 45.1185 46.9205 45.3295C47.1315 45.5405 47.25 45.8266 47.25 46.125V51.75H31.5V45ZM18 45H29.25V51.75H18V45ZM2.25 45H15.75V51.75H2.25V45ZM2.25 54H9V60.75H2.25V54ZM15.75 69.75H2.25V63H15.75V69.75ZM11.25 60.75V54H22.5V60.75H11.25ZM31.5 69.75H18V63H31.5V69.75ZM24.75 60.75V54H38.25V60.75H24.75ZM45 69.75H33.75V63H45V69.75ZM40.5 60.75V54H52.875C53.1734 54 53.4595 54.1185 53.6705 54.3295C53.8815 54.5405 54 54.8266 54 55.125V60.75H40.5ZM60.75 69.75H47.25V63H59.625C59.9234 63 60.2095 63.1185 60.4205 63.3295C60.6315 63.5405 60.75 63.8266 60.75 64.125V69.75ZM68.1412 2.66399C67.2846 1.84486 66.145 1.3877 64.9598 1.3877C63.7745 1.3877 62.6349 1.84486 61.7783 2.66399L53.9595 10.4827C53.3268 11.1156 52.9713 11.9739 52.9713 12.8689C52.9713 13.7638 53.3268 14.6221 53.9595 15.255L47.5965 21.6202L45.1013 19.125C44.7347 18.7587 44.2887 18.4817 43.7978 18.3156C43.3069 18.1494 42.7844 18.0985 42.2707 18.1668C41.757 18.2351 41.2659 18.4208 40.8356 18.7095C40.4052 18.9982 40.0471 19.3821 39.789 19.8315L32.0963 33.2482C31.8047 33.7609 31.6518 34.3407 31.6528 34.9304C31.6538 35.5202 31.8086 36.0995 32.1019 36.6111C32.3952 37.1228 32.8169 37.5491 33.3253 37.8479C33.8337 38.1468 34.4113 38.3078 35.001 38.3152C35.5284 38.3133 36.0482 38.1893 36.5198 37.953L50.652 30.978C51.1316 30.7398 51.5478 30.3913 51.8666 29.9611C52.1853 29.5308 52.3975 29.0311 52.4857 28.503C52.5735 27.9754 52.5335 27.4345 52.369 26.9255C52.2046 26.4166 51.9206 25.9545 51.5407 25.578L49.1873 23.2245L55.5502 16.8592C56.1832 17.492 57.0414 17.8474 57.9364 17.8474C58.8313 17.8474 59.6896 17.492 60.3225 16.8592L68.1412 9.04049C68.561 8.6224 68.894 8.12554 69.1213 7.57842C69.3486 7.0313 69.4656 6.44469 69.4656 5.85224C69.4656 5.2598 69.3486 4.67319 69.1213 4.12607C68.894 3.57895 68.561 3.08209 68.1412 2.66399V2.66399ZM49.95 27.1552C50.0755 27.2816 50.1692 27.436 50.2235 27.6057C50.2777 27.7753 50.2908 27.9555 50.2618 28.1312C50.2328 28.3069 50.1625 28.4733 50.0567 28.6165C49.9508 28.7598 49.8125 28.8759 49.653 28.9552L35.5207 35.9302C35.3038 36.0387 35.0577 36.0742 34.819 36.0313C34.5803 35.9885 34.3619 35.8697 34.1962 35.6927C34.0305 35.5156 33.9264 35.2897 33.8996 35.0487C33.8727 34.8077 33.9244 34.5645 34.047 34.3552L41.7398 20.9407C41.8267 20.7917 41.9468 20.6647 42.0907 20.5694C42.2346 20.4742 42.3985 20.4134 42.5696 20.3916C42.7408 20.3699 42.9147 20.3878 43.0779 20.444C43.241 20.5002 43.389 20.5932 43.5105 20.7157L49.95 27.1552ZM66.5505 7.43624L58.725 15.255C58.514 15.4659 58.2279 15.5844 57.9296 15.5844C57.6313 15.5844 57.3452 15.4659 57.1342 15.255L55.5435 13.6642C55.3326 13.4533 55.2141 13.1672 55.2141 12.8689C55.2141 12.5706 55.3326 12.2845 55.5435 12.0735L63.3622 4.25474C63.7842 3.83293 64.3564 3.59597 64.953 3.59597C65.5496 3.59597 66.1218 3.83293 66.5438 4.25474C66.9665 4.67579 67.2046 5.24748 67.2059 5.8441C67.2072 6.44072 66.9714 7.01341 66.5505 7.43624V7.43624Z" fill="black"/>
</g>
<defs>
<clipPath id="clip0_501_616">
<rect width="72" height="72" fill="white"/>
</clipPath>
</defs>
</svg>
