<svg width="72" height="72" viewBox="0 0 72 72" fill="none" xmlns="http://www.w3.org/2000/svg">
<path d="M50.0625 43.875C51.2863 43.875 52.4826 43.5121 53.5001 42.8322C54.5176 42.1523 55.3107 41.186 55.779 40.0554C56.2473 38.9247 56.3699 37.6806 56.1311 36.4804C55.8924 35.2801 55.3031 34.1776 54.4377 33.3123C53.5724 32.4469 52.4699 31.8576 51.2696 31.6189C50.0694 31.3801 48.8253 31.5027 47.6946 31.971C46.564 32.4393 45.5977 33.2324 44.9178 34.2499C44.2379 35.2674 43.875 36.4637 43.875 37.6875C43.8769 39.328 44.5293 40.9007 45.6893 42.0607C46.8493 43.2207 48.422 43.8731 50.0625 43.875ZM50.0625 33.75C50.8413 33.75 51.6025 33.9809 52.2501 34.4136C52.8976 34.8463 53.4023 35.4612 53.7003 36.1807C53.9983 36.9002 54.0763 37.6919 53.9243 38.4557C53.7724 39.2195 53.3974 39.9211 52.8467 40.4717C52.2961 41.0224 51.5945 41.3974 50.8307 41.5493C50.0669 41.7013 49.2752 41.6233 48.5557 41.3253C47.8362 41.0273 47.2212 40.5226 46.7886 39.8751C46.3559 39.2275 46.125 38.4663 46.125 37.6875C46.1262 36.6436 46.5414 35.6427 47.2796 34.9046C48.0177 34.1664 49.0186 33.7512 50.0625 33.75Z" fill="#061237"/>
<path d="M6.75 50.625H9V51.75C9 52.0484 9.11853 52.3345 9.3295 52.5455C9.54048 52.7565 9.82663 52.875 10.125 52.875C10.4234 52.875 10.7095 52.7565 10.9205 52.5455C11.1315 52.3345 11.25 52.0484 11.25 51.75V50.625H13.5V51.75C13.5 52.0484 13.6185 52.3345 13.8295 52.5455C14.0405 52.7565 14.3266 52.875 14.625 52.875C14.9234 52.875 15.2095 52.7565 15.4205 52.5455C15.6315 52.3345 15.75 52.0484 15.75 51.75V50.625H18V51.75C18 52.0484 18.1185 52.3345 18.3295 52.5455C18.5405 52.7565 18.8266 52.875 19.125 52.875C19.4234 52.875 19.7095 52.7565 19.9205 52.5455C20.1315 52.3345 20.25 52.0484 20.25 51.75V50.625H22.5V51.75C22.5 52.0484 22.6185 52.3345 22.8295 52.5455C23.0405 52.7565 23.3266 52.875 23.625 52.875C23.9234 52.875 24.2095 52.7565 24.4205 52.5455C24.6315 52.3345 24.75 52.0484 24.75 51.75V50.625H27V51.75C27 52.0484 27.1185 52.3345 27.3295 52.5455C27.5405 52.7565 27.8266 52.875 28.125 52.875C28.4234 52.875 28.7095 52.7565 28.9205 52.5455C29.1315 52.3345 29.25 52.0484 29.25 51.75V50.625H31.5V51.75C31.5 52.0484 31.6185 52.3345 31.8295 52.5455C32.0405 52.7565 32.3266 52.875 32.625 52.875C32.9234 52.875 33.2095 52.7565 33.4205 52.5455C33.6315 52.3345 33.75 52.0484 33.75 51.75V50.625H36V51.75C36 52.0484 36.1185 52.3345 36.3295 52.5455C36.5405 52.7565 36.8266 52.875 37.125 52.875C37.4234 52.875 37.7095 52.7565 37.9205 52.5455C38.1315 52.3345 38.25 52.0484 38.25 51.75V50.625H40.5V51.75C40.5 52.0484 40.6185 52.3345 40.8295 52.5455C41.0405 52.7565 41.3266 52.875 41.625 52.875C41.9234 52.875 42.2095 52.7565 42.4205 52.5455C42.6315 52.3345 42.75 52.0484 42.75 51.75V50.625H45V51.75C45 52.0484 45.1185 52.3345 45.3295 52.5455C45.5405 52.7565 45.8266 52.875 46.125 52.875C46.4234 52.875 46.7095 52.7565 46.9205 52.5455C47.1315 52.3345 47.25 52.0484 47.25 51.75V50.625H49.5V51.75C49.5 52.0484 49.6185 52.3345 49.8295 52.5455C50.0405 52.7565 50.3266 52.875 50.625 52.875C50.9234 52.875 51.2095 52.7565 51.4205 52.5455C51.6315 52.3345 51.75 52.0484 51.75 51.75V50.625H54V51.75C54 52.0484 54.1185 52.3345 54.3295 52.5455C54.5405 52.7565 54.8266 52.875 55.125 52.875C55.4234 52.875 55.7095 52.7565 55.9205 52.5455C56.1315 52.3345 56.25 52.0484 56.25 51.75V50.625H58.5V51.75C58.5 52.0484 58.6185 52.3345 58.8295 52.5455C59.0405 52.7565 59.3266 52.875 59.625 52.875C59.9234 52.875 60.2095 52.7565 60.4205 52.5455C60.6315 52.3345 60.75 52.0484 60.75 51.75V50.625H65.25V54H67.5V50.625C67.4993 50.0285 67.262 49.4566 66.8402 49.0348C66.4184 48.613 65.8465 48.3757 65.25 48.375H61.875V28.125H64.125V32.8878C64.125 33.783 64.4806 34.6414 65.1135 35.2743C65.7465 35.9073 66.6049 36.2629 67.5 36.2629C68.3951 36.2629 69.2535 35.9073 69.8865 35.2743C70.5194 34.6414 70.875 33.783 70.875 32.8878V16.5754C70.875 15.6802 70.5194 14.8218 69.8865 14.1889C69.2535 13.5559 68.3951 13.2004 67.5 13.2004C66.6049 13.2004 65.7465 13.5559 65.1135 14.1889C64.4806 14.8218 64.125 15.6802 64.125 16.5754V21.375H61.8594C61.8265 20.2656 61.5542 19.1764 61.0611 18.182C60.5681 17.1876 59.866 16.3116 59.0029 15.6138C57.679 14.5731 56.1508 13.8228 54.5177 13.4118C54.5464 13.2553 54.5613 13.0966 54.5625 12.9375V10.125C54.5618 9.52847 54.3245 8.95657 53.9027 8.53476C53.4809 8.11295 52.909 7.87568 52.3125 7.875H50.0625C49.466 7.87568 48.8941 8.11295 48.4723 8.53476C48.0505 8.95657 47.8132 9.52847 47.8125 10.125V12.9375C47.8125 13.0236 47.8216 13.1072 47.8298 13.1909C45.239 13.6134 42.7184 14.3891 40.3385 15.4965C39.2868 15.9872 38.1405 16.2421 36.98 16.2436H22.0704C20.3281 16.2635 18.6308 15.6895 17.2581 14.6162C15.893 13.4636 14.8027 12.0204 14.0669 10.3922C13.875 9.97722 13.5685 9.62568 13.1835 9.37902C12.7985 9.13236 12.351 9.00086 11.8938 9H10.125V7.875C10.125 7.57663 10.0065 7.29048 9.7955 7.07951C9.58452 6.86853 9.29837 6.75 9 6.75C8.70163 6.75 8.41548 6.86853 8.2045 7.07951C7.99353 7.29048 7.875 7.57663 7.875 7.875V9H6.88843C6.25646 8.99943 5.65008 9.24956 5.20232 9.69552C4.75455 10.1415 4.50198 10.7469 4.5 11.3788V34.875C4.48616 35.1741 4.53489 35.4729 4.64306 35.7521C4.75124 36.0314 4.91649 36.285 5.12825 36.4968C5.34 36.7085 5.59361 36.8738 5.87286 36.9819C6.1521 37.0901 6.45085 37.1388 6.75 37.125H7.875V43.875C7.875 44.1734 7.99353 44.4595 8.2045 44.6705C8.41548 44.8815 8.70163 45 9 45C9.29837 45 9.58452 44.8815 9.7955 44.6705C10.0065 44.4595 10.125 44.1734 10.125 43.875V37.125H12.375C12.6731 37.1392 12.9708 37.0912 13.2494 36.9841C13.5279 36.8769 13.781 36.7129 13.9927 36.5026C14.2043 36.2922 14.3698 36.0401 14.4787 35.7622C14.5876 35.4844 14.6374 35.1869 14.625 34.8887C14.6618 31.8452 15.7602 29.8386 17.9821 28.754C18.8568 28.3421 19.8142 28.1361 20.7809 28.1516H34.2647C35.3012 28.1476 36.2969 28.5549 37.0335 29.2841C37.77 30.0133 38.1873 31.0049 38.1937 32.0413V48.375H6.75C6.15347 48.3757 5.58157 48.613 5.15976 49.0348C4.73795 49.4566 4.50068 50.0285 4.5 50.625V54H6.75V50.625ZM66.375 16.5754C66.375 16.277 66.4935 15.9908 66.7045 15.7799C66.9155 15.5689 67.2016 15.4504 67.5 15.4504C67.7984 15.4504 68.0845 15.5689 68.2955 15.7799C68.5065 15.9908 68.625 16.277 68.625 16.5754V32.8878C68.625 33.1862 68.5065 33.4724 68.2955 33.6833C68.0845 33.8943 67.7984 34.0128 67.5 34.0128C67.2016 34.0128 66.9155 33.8943 66.7045 33.6833C66.4935 33.4724 66.375 33.1862 66.375 32.8878V16.5754ZM64.125 25.875H61.875V23.625H64.125V25.875ZM50.0625 12.9375V10.125H52.3125V12.9375C52.309 12.9694 52.3026 13.0009 52.2934 13.0317C51.5544 12.964 50.8117 12.9452 50.0701 12.9752C50.0692 12.962 50.0625 12.9509 50.0625 12.9375ZM27.5625 25.875V18.4936H29.8125V25.875C29.8125 25.8841 29.815 25.8926 29.8152 25.9016H27.5598C27.56 25.8926 27.5625 25.8841 27.5625 25.875ZM16.9953 26.7319C13.9774 28.2049 12.4228 30.94 12.375 34.875H6.75V11.3788C6.75134 11.3434 6.76666 11.31 6.7926 11.2858C6.81855 11.2617 6.853 11.2488 6.88843 11.25H11.8938C11.921 11.2499 11.9477 11.2576 11.9706 11.2723C11.9935 11.2869 12.0116 11.3079 12.0229 11.3327C12.9052 13.2759 14.2118 14.9967 15.8467 16.3685C17.6195 17.7635 19.8147 18.513 22.0704 18.4936H25.3125V25.875C25.3125 25.8841 25.315 25.8926 25.3152 25.9016H20.7809C19.4722 25.8852 18.1771 26.1693 16.9953 26.7319ZM34.2647 25.9016H32.0598C32.06 25.8926 32.0625 25.8841 32.0625 25.875V18.4936H36.98C38.4661 18.4926 39.934 18.1669 41.2811 17.5394C44.4164 16.093 52.2842 13.1814 57.6098 17.3809C58.2443 17.8962 58.7548 18.5476 59.1036 19.2868C59.4524 20.026 59.6306 20.8342 59.625 21.6516V48.375H40.4437V32.0413C40.4366 30.4084 39.7821 28.8449 38.6237 27.6938C37.4653 26.5428 35.8977 25.8983 34.2647 25.9016ZM69.75 56.25H2.25C1.65347 56.2507 1.08157 56.488 0.659763 56.9098C0.237954 57.3316 0.000681854 57.9035 0 58.5V63C0.000681854 63.5965 0.237954 64.1684 0.659763 64.5902C1.08157 65.012 1.65347 65.2493 2.25 65.25H69.75C70.3465 65.2493 70.9184 65.012 71.3402 64.5902C71.762 64.1684 71.9993 63.5965 72 63V58.5C71.9993 57.9035 71.762 57.3316 71.3402 56.9098C70.9184 56.488 70.3465 56.2507 69.75 56.25ZM2.25 63V58.5H69.75L69.7514 63H2.25Z" fill="#061237"/>
<path d="M9 22.5C9.62132 22.5 10.125 21.9963 10.125 21.375C10.125 20.7537 9.62132 20.25 9 20.25C8.37868 20.25 7.875 20.7537 7.875 21.375C7.875 21.9963 8.37868 22.5 9 22.5Z" fill="#061237"/>
<path d="M51.1875 22.5C51.8088 22.5 52.3125 21.9963 52.3125 21.375C52.3125 20.7537 51.8088 20.25 51.1875 20.25C50.5662 20.25 50.0625 20.7537 50.0625 21.375C50.0625 21.9963 50.5662 22.5 51.1875 22.5Z" fill="#061237"/>
</svg>
