<svg width="72" height="72" viewBox="0 0 72 72" fill="none" xmlns="http://www.w3.org/2000/svg">
<path d="M63.5861 1.05884H8.41401C6.0787 1.05884 4.17871 2.95882 4.17871 5.29413V69.8824C4.17871 70.4671 4.6528 70.9412 5.23753 70.9412C58.5912 70.9412 13.3857 70.9412 66.7625 70.9412C67.3473 70.9412 67.8214 70.4671 67.8214 69.8824V5.29413C67.8214 2.95882 65.9214 1.05884 63.5861 1.05884ZM13.5939 68.8235V14.7093C13.5939 14.1256 14.069 13.6505 14.6527 13.6505H31.765V68.8235H13.5939V68.8235ZM33.8826 68.8235V13.6505H38.1179V68.8235H33.8826V68.8235ZM40.2356 68.8235V13.6505H57.3474C57.9311 13.6505 58.4062 14.1256 58.4062 14.7093V68.8235H40.2356V68.8235ZM65.7037 68.8235H60.5239V14.7093C60.5239 12.9577 59.099 11.5328 57.3474 11.5328C6.80653 11.5285 63.5931 11.5326 14.6527 11.5328C12.9011 11.5328 11.4762 12.9577 11.4762 14.7093V68.8235H6.29636V5.29413C6.29636 4.12622 7.24609 3.17648 8.41401 3.17648H63.5861C64.754 3.17648 65.7037 4.12622 65.7037 5.29413V68.8235H65.7037Z" fill="#061237"/>
<path d="M27.1679 24.7377L23.4277 20.9975C23.2361 20.8057 22.9713 20.6869 22.6787 20.6869C22.3862 20.6869 22.1214 20.8057 21.9298 20.9975L18.1901 24.7377C17.7765 25.1513 17.7765 25.8218 18.1901 26.2349C18.6037 26.6485 19.2737 26.6485 19.6873 26.2349L21.6199 24.302V31.8982C21.6199 32.4829 22.094 32.957 22.6787 32.957C23.2635 32.957 23.7375 32.4829 23.7375 31.8982V24.3018L25.6706 26.2349C26.0842 26.6485 26.7543 26.6485 27.1679 26.2349C27.5815 25.8213 27.5815 25.1513 27.1679 24.7377ZM52.3118 27.4095L50.3793 29.3421V21.7458C50.3793 21.161 49.9052 20.6869 49.3204 20.6869C48.7357 20.6869 48.2616 21.161 48.2616 21.7458V29.3421L46.3291 27.4095C45.9154 26.9959 45.2454 26.9959 44.8318 27.4095C44.4182 27.8231 44.4182 28.4932 44.8318 28.9068L48.5715 32.6465C48.767 32.8422 49.0437 32.957 49.3204 32.957C49.5971 32.957 49.8738 32.8423 50.0694 32.6465L53.8091 28.9068C54.2227 28.4932 54.2227 27.8231 53.8091 27.4095C53.3955 26.9959 52.7254 26.9959 52.3118 27.4095ZM32.2905 5.23706C31.1207 5.23706 30.1696 6.18182 30.1696 7.35794C30.1696 8.5276 31.1208 9.47235 32.2905 9.47235C33.4601 9.47235 34.4113 8.5276 34.4113 7.35794C34.4113 6.18182 33.4601 5.23706 32.2905 5.23706ZM39.7086 5.23706C38.5389 5.23706 37.5878 6.18182 37.5878 7.35794C37.5878 8.5276 38.5389 9.47235 39.7086 9.47235C40.8783 9.47235 41.8294 8.5276 41.8294 7.35794C41.8294 6.18182 40.8783 5.23706 39.7086 5.23706Z" fill="#061237"/>
</svg>
