<svg width="72" height="72" viewBox="0 0 72 72" fill="none" xmlns="http://www.w3.org/2000/svg">
<g clip-path="url(#clip0_501_71)">
<path d="M66.352 0H5.64703C2.99203 0 0.832031 2.16 0.832031 4.82625V68.265C0.832031 70.335 2.50828 72.0113 4.57828 72.0113C6.64828 72.0113 8.32453 70.335 8.32453 68.265V7.4925H15.1758V55.7212H12.1608C11.5533 55.7212 11.0695 56.205 11.0695 56.8125V61.785C11.0695 62.3925 11.5533 62.8763 12.1608 62.8763H32.8045C33.412 62.8763 33.8958 62.3925 33.8958 61.785V56.8125C33.8958 56.205 33.412 55.7212 32.8045 55.7212H29.7895V7.4925H42.1983V55.7212H39.1833C38.5758 55.7212 38.092 56.205 38.092 56.8125V61.785C38.092 62.3925 38.5758 62.8763 39.1833 62.8763H59.827C60.4345 62.8763 60.9183 62.3925 60.9183 61.785V56.8125C60.9183 56.205 60.4345 55.7212 59.827 55.7212H56.812V7.4925H63.6633V68.265C63.6633 70.335 65.3395 72.0113 67.4095 72.0113C69.4795 72.0113 71.1558 70.335 71.1558 68.265V4.82625C71.167 2.16 69.007 0 66.352 0ZM31.7133 57.9038V60.6938H13.252V57.9038H31.7133ZM17.3583 55.7212V7.4925H27.6183V55.7212H17.3583ZM58.747 57.9038V60.6938H40.2858V57.9038H58.747ZM44.392 55.7212V7.4925H54.652V55.7212H44.392ZM68.9845 68.2537C68.9845 69.12 68.287 69.8175 67.4208 69.8175C66.5545 69.8175 65.857 69.12 65.857 68.2537V6.40125C65.857 5.79375 65.3733 5.31 64.7658 5.31H7.22203C6.61453 5.31 6.13078 5.79375 6.13078 6.40125V68.2537C6.13078 69.12 5.43328 69.8175 4.56703 69.8175C3.70078 69.8175 3.00328 69.12 3.00328 68.2537V4.82625C3.00328 3.375 4.18453 2.1825 5.64703 2.1825H66.3408C67.792 2.1825 68.9845 3.36375 68.9845 4.82625V68.2537Z" fill="#061237"/>
</g>
<defs>
<clipPath id="clip0_501_71">
<rect width="72" height="72" fill="white"/>
</clipPath>
</defs>
</svg>
