<svg width="72" height="72" viewBox="0 0 72 72" fill="none" xmlns="http://www.w3.org/2000/svg">
<g clip-path="url(#clip0_501_124)">
<path d="M31.5 2.25C31.2016 2.25003 30.9155 2.36857 30.7045 2.57954C30.4936 2.79051 30.375 3.07664 30.375 3.375V5.15918C29.777 5.34818 29.2018 5.58534 28.6436 5.87109L27.3867 4.61426C27.1757 4.40336 26.8896 4.28488 26.5913 4.28488C26.293 4.28488 26.0069 4.40336 25.7959 4.61426L22.6143 7.7959C22.4034 8.00688 22.2849 8.29299 22.2849 8.59131C22.2849 8.88963 22.4034 9.17573 22.6143 9.38672L23.8711 10.6436C23.5838 11.2007 23.3454 11.7781 23.1548 12.375H21.375C21.0766 12.375 20.7905 12.4936 20.5795 12.7045C20.3686 12.9155 20.25 13.2016 20.25 13.5V18C20.25 18.2984 20.3686 18.5845 20.5795 18.7955C20.7905 19.0064 21.0766 19.125 21.375 19.125H23.1548C23.3439 19.7242 23.5804 20.3017 23.8667 20.8608L22.6143 22.1133C22.4034 22.3243 22.2849 22.6104 22.2849 22.9087C22.2849 23.207 22.4034 23.4931 22.6143 23.7041L25.7959 26.8857C26.0069 27.0966 26.293 27.2151 26.5913 27.2151C26.8896 27.2151 27.1757 27.0966 27.3867 26.8857L28.6436 25.6289C29.2018 25.9167 29.7767 26.1588 30.375 26.3496V28.125C30.375 28.4234 30.4936 28.7095 30.7045 28.9205C30.9155 29.1314 31.2016 29.25 31.5 29.25H36C36.2984 29.25 36.5845 29.1314 36.7955 28.9205C37.0064 28.7095 37.125 28.4234 37.125 28.125V26.3452C37.7243 26.1562 38.3015 25.92 38.8608 25.6333L40.1133 26.8857C40.3243 27.0966 40.6104 27.2151 40.9087 27.2151C41.207 27.2151 41.4931 27.0966 41.7041 26.8857L44.8857 23.7041C45.0966 23.4931 45.2151 23.207 45.2151 22.9087C45.2151 22.6104 45.0966 22.3243 44.8857 22.1133L43.6333 20.8608C43.9211 20.3026 44.1589 19.7235 44.3496 19.125H46.125C46.4234 19.125 46.7095 19.0064 46.9205 18.7955C47.1314 18.5845 47.25 18.2984 47.25 18V13.5C47.25 13.2016 47.1314 12.9155 46.9205 12.7045C46.7095 12.4936 46.4234 12.375 46.125 12.375H44.3452C44.1559 11.776 43.9198 11.1983 43.6333 10.6392L44.8857 9.38672C45.0966 9.17573 45.2151 8.88963 45.2151 8.59131C45.2151 8.29299 45.0966 8.00688 44.8857 7.7959L41.7041 4.61426C41.4931 4.40336 41.207 4.28488 40.9087 4.28488C40.6104 4.28488 40.3243 4.40336 40.1133 4.61426L38.8564 5.87109C38.2987 5.58377 37.7228 5.34559 37.125 5.15479V3.375C37.125 3.07664 37.0064 2.79051 36.7955 2.57954C36.5845 2.36857 36.2984 2.25003 36 2.25H31.5ZM32.625 4.5H34.875V5.88867C34.8746 6.14382 34.9609 6.39153 35.1198 6.59116C35.2787 6.79079 35.5008 6.93047 35.7495 6.9873C36.7361 7.2123 37.6786 7.6007 38.5356 8.13867C38.7515 8.27386 39.0068 8.33182 39.2598 8.30308C39.5129 8.27434 39.7487 8.16061 39.9287 7.98047L40.9087 7.00049L42.4995 8.59131L41.5239 9.56689C41.3438 9.74692 41.23 9.98273 41.2013 10.2358C41.1726 10.4888 41.2305 10.7441 41.3657 10.96C41.9013 11.8188 42.2863 12.763 42.5083 13.7505C42.5651 13.9992 42.7048 14.2213 42.9044 14.3802C43.1041 14.5391 43.3518 14.6254 43.6069 14.625H45V16.875H43.6113C43.3556 16.8748 43.1074 16.9618 42.9077 17.1215C42.708 17.2813 42.5687 17.5044 42.5127 17.7539C42.2879 18.7403 41.8993 19.6786 41.3613 20.5356C41.2261 20.7515 41.1682 21.0068 41.1969 21.2598C41.2257 21.5129 41.3394 21.7487 41.5195 21.9287L42.4995 22.9087L40.9087 24.4995L39.9331 23.5239C39.7534 23.3448 39.5184 23.2318 39.2663 23.203C39.0142 23.1743 38.7598 23.2317 38.5444 23.3657C37.6857 23.9014 36.7413 24.2906 35.7539 24.5127C35.5051 24.5685 35.2826 24.7072 35.1229 24.906C34.9632 25.1048 34.8758 25.3519 34.875 25.6069V27H32.625V25.6113C32.6244 25.3569 32.5376 25.1102 32.3788 24.9115C32.22 24.7128 31.9985 24.5738 31.7505 24.5171C30.7639 24.2921 29.8214 23.9037 28.9644 23.3657C28.7495 23.2294 28.4947 23.17 28.2417 23.1971C27.9887 23.2243 27.7524 23.3364 27.5713 23.5151L26.5913 24.4951L25.0005 22.9043L25.9761 21.9287C26.1552 21.749 26.2682 21.514 26.297 21.2619C26.3257 21.0098 26.2683 20.7554 26.1343 20.54C25.5987 19.6812 25.2137 18.7368 24.9917 17.7495C24.9357 17.5 24.7964 17.2769 24.5967 17.1172C24.397 16.9574 24.1488 16.8704 23.8931 16.8706H22.5V14.6206H23.8887C24.1438 14.621 24.3915 14.5347 24.5912 14.3758C24.7908 14.2169 24.9305 13.9948 24.9873 13.7461C25.2121 12.7595 25.6007 11.8214 26.1387 10.9644C26.275 10.7481 26.3336 10.4919 26.3048 10.2379C26.2761 9.98385 26.1617 9.74721 25.9805 9.56689L25.0005 8.58691L26.5913 6.99609L27.5669 7.97168C27.7461 8.15145 27.9808 8.26535 28.2329 8.29487C28.485 8.32439 28.7397 8.26779 28.9556 8.13428C29.8143 7.59878 30.7587 7.20915 31.7461 6.9873C31.9949 6.93151 32.2174 6.79284 32.3771 6.59403C32.5368 6.39522 32.6242 6.14806 32.625 5.89307V4.5ZM33.75 8.22656C29.6069 8.22656 26.2222 11.6071 26.2222 15.75C26.2222 19.8932 29.6069 23.2778 33.75 23.2778C37.8931 23.2778 41.2778 19.8932 41.2778 15.75C41.2778 11.6071 37.8931 8.22656 33.75 8.22656ZM33.75 10.4766C36.6771 10.4766 39.0278 12.823 39.0278 15.75C39.0278 18.6772 36.6771 21.0278 33.75 21.0278C30.8229 21.0278 28.4722 18.6772 28.4722 15.75C28.4722 12.823 30.8229 10.4766 33.75 10.4766ZM53.5913 24.75C53.2929 24.75 53.0068 24.8686 52.7958 25.0795C52.5849 25.2905 52.4663 25.5766 52.4663 25.875V28.1162C51.6672 28.3583 50.8978 28.6716 50.1592 29.061L48.5859 27.4878C48.375 27.2769 48.0888 27.1584 47.7905 27.1584C47.4922 27.1584 47.2061 27.2769 46.9951 27.4878L43.2334 31.2451C43.0225 31.4561 42.904 31.7422 42.904 32.0405C42.904 32.3388 43.0225 32.625 43.2334 32.8359L44.8154 34.418C44.4246 35.1546 44.1057 35.9189 43.8618 36.7163H41.625C41.3266 36.7163 41.0405 36.8349 40.8295 37.0458C40.6186 37.2568 40.5 37.5429 40.5 37.8413V43.1631C40.5 43.4614 40.6186 43.7476 40.8295 43.9585C41.0405 44.1695 41.3266 44.2881 41.625 44.2881H43.8618C44.1035 45.0859 44.418 45.8533 44.8066 46.5908L43.2334 48.1685C43.0225 48.3794 42.904 48.6656 42.904 48.9639C42.904 49.2622 43.0225 49.5483 43.2334 49.7593L46.9951 53.5166C47.2061 53.7275 47.4922 53.846 47.7905 53.846C48.0888 53.846 48.375 53.7275 48.5859 53.5166L50.1636 51.939C50.9009 52.3302 51.6681 52.6487 52.4663 52.8926V55.125C52.4663 55.4234 52.5849 55.7095 52.7958 55.9205C53.0068 56.1314 53.2929 56.25 53.5913 56.25H58.9087C59.2071 56.25 59.4932 56.1314 59.7042 55.9205C59.9151 55.7095 60.0337 55.4234 60.0337 55.125V52.8882C60.8328 52.6461 61.6022 52.3328 62.3408 51.9434L63.9141 53.5166C64.125 53.7275 64.4112 53.846 64.7095 53.846C65.0078 53.846 65.2939 53.7275 65.5049 53.5166L69.2666 49.7593C69.4775 49.5483 69.596 49.2622 69.596 48.9639C69.596 48.6656 69.4775 48.3794 69.2666 48.1685L67.6846 46.5864C68.0751 45.8507 68.3943 45.0846 68.6382 44.2881H70.875C71.1734 44.2881 71.4595 44.1695 71.6705 43.9585C71.8814 43.7476 72 43.4614 72 43.1631V37.8413C72 37.5429 71.8814 37.2568 71.6705 37.0458C71.4595 36.8349 71.1734 36.7163 70.875 36.7163H68.6382C68.3965 35.9185 68.082 35.1511 67.6934 34.4136L69.2666 32.8359C69.4775 32.625 69.596 32.3388 69.596 32.0405C69.596 31.7422 69.4775 31.4561 69.2666 31.2451L65.5049 27.4878C65.2939 27.2769 65.0078 27.1584 64.7095 27.1584C64.4112 27.1584 64.125 27.2769 63.9141 27.4878L62.3364 29.0654C61.5991 28.6742 60.8319 28.3559 60.0337 28.1118V25.875C60.0337 25.5766 59.9151 25.2905 59.7042 25.0795C59.4932 24.8686 59.2071 24.75 58.9087 24.75H53.5913ZM54.7163 27H57.7837V28.8457C57.7833 29.1009 57.8696 29.3486 58.0285 29.5482C58.1874 29.7478 58.4095 29.8875 58.6582 29.9443C59.8466 30.2152 60.9833 30.685 62.0156 31.333C62.2315 31.4682 62.4868 31.5262 62.7398 31.4974C62.9929 31.4687 63.2287 31.3549 63.4087 31.1748L64.7095 29.874L66.8804 32.0405L65.584 33.3413C65.4042 33.5205 65.2903 33.7552 65.2608 34.0073C65.2313 34.2594 65.2879 34.5141 65.4214 34.73C66.0666 35.7643 66.5339 36.9024 66.8013 38.0918C66.8581 38.3405 66.9978 38.5626 67.1974 38.7215C67.397 38.8804 67.6448 38.9667 67.8999 38.9663H69.75V42.0381H67.9043C67.6491 42.0377 67.4014 42.124 67.2018 42.2829C67.0022 42.4418 66.8625 42.6639 66.8057 42.9126C66.5349 44.101 66.0694 45.2333 65.4214 46.2656C65.2856 46.481 65.227 46.736 65.2549 46.989C65.2828 47.2421 65.3957 47.4781 65.5752 47.6587L66.8804 48.9639L64.7095 51.1304L63.4131 49.834C63.2331 49.6538 62.9973 49.5401 62.7442 49.5114C62.4912 49.4826 62.2359 49.5406 62.02 49.6758C60.9857 50.3209 59.852 50.7884 58.6626 51.0557C58.4138 51.1115 58.1913 51.2501 58.0316 51.4489C57.8719 51.6477 57.7845 51.8949 57.7837 52.1499V54H54.7163V52.1543C54.7157 51.8999 54.6289 51.6532 54.4701 51.4545C54.3113 51.2558 54.0898 51.1167 53.8418 51.0601C52.6534 50.7892 51.5167 50.3194 50.4844 49.6714C50.2685 49.5362 50.0132 49.4782 49.7602 49.507C49.5071 49.5357 49.2713 49.6494 49.0913 49.8296L47.7905 51.1304L45.6196 48.9639L46.916 47.6631C47.0958 47.4839 47.2097 47.2492 47.2392 46.9971C47.2687 46.745 47.2121 46.4903 47.0786 46.2744C46.4334 45.2401 45.9661 44.1019 45.6987 42.9126C45.6419 42.6639 45.5022 42.4418 45.3026 42.2829C45.103 42.124 44.8552 42.0377 44.6001 42.0381H42.75V38.9663H44.5957C44.8509 38.9667 45.0986 38.8804 45.2982 38.7215C45.4978 38.5626 45.6375 38.3405 45.6943 38.0918C45.9651 36.9033 46.4306 35.7711 47.0786 34.7388C47.2144 34.5234 47.273 34.2684 47.2451 34.0154C47.2172 33.7623 47.1043 33.5263 46.9248 33.3457L45.6196 32.0405L47.7905 29.874L49.0869 31.1704C49.2669 31.3505 49.5027 31.4643 49.7558 31.493C50.0088 31.5218 50.2641 31.4638 50.48 31.3286C51.5143 30.6833 52.648 30.216 53.8374 29.9487C54.087 29.8928 54.31 29.7534 54.4698 29.5537C54.6295 29.354 54.7165 29.1058 54.7163 28.8501V27ZM16.7739 31.5C16.4756 31.5 16.1894 31.6186 15.9785 31.8295C15.7675 32.0405 15.649 32.3266 15.6489 32.625V35.7803C14.4481 36.1232 13.2944 36.5952 12.1992 37.1953L9.97998 34.9761C9.76899 34.7652 9.48289 34.6467 9.18457 34.6467C8.88625 34.6467 8.60015 34.7652 8.38916 34.9761L3.47607 39.8936C3.26518 40.1045 3.1467 40.3906 3.1467 40.689C3.1467 40.9873 3.26518 41.2734 3.47607 41.4844L5.69971 43.708C5.09712 44.8011 4.61737 45.9497 4.27148 47.1489H1.125C0.826641 47.149 0.54051 47.2675 0.329538 47.4785C0.118566 47.6894 2.97778e-05 47.9756 0 48.2739L0 55.2305C2.97778e-05 55.5288 0.118566 55.815 0.329538 56.0259C0.54051 56.2369 0.826641 56.3554 1.125 56.3555H4.28027C4.62268 57.5547 5.0919 58.7066 5.69092 59.8008L3.47607 62.02C3.26518 62.231 3.1467 62.5171 3.1467 62.8154C3.1467 63.1137 3.26518 63.3999 3.47607 63.6108L8.38916 68.5283C8.60015 68.7392 8.88625 68.8577 9.18457 68.8577C9.48289 68.8577 9.76899 68.7392 9.97998 68.5283L12.208 66.3047C13.3007 66.9068 14.4502 67.3827 15.6489 67.7285V70.875C15.649 71.1734 15.7675 71.4595 15.9785 71.6705C16.1894 71.8814 16.4756 72 16.7739 72H23.7261C24.0244 72 24.3106 71.8814 24.5215 71.6705C24.7325 71.4595 24.851 71.1734 24.8511 70.875V67.7241C26.0519 67.3814 27.2056 66.9092 28.3008 66.3091L30.52 68.5283C30.731 68.7392 31.0171 68.8577 31.3154 68.8577C31.6137 68.8577 31.8999 68.7392 32.1108 68.5283L37.0239 63.6108C37.2348 63.3999 37.3533 63.1137 37.3533 62.8154C37.3533 62.5171 37.2348 62.231 37.0239 62.02L34.8003 59.7964C35.4029 58.7033 35.8826 57.5547 36.2285 56.3555H39.375C39.6734 56.3554 39.9595 56.2369 40.1705 56.0259C40.3814 55.815 40.5 55.5288 40.5 55.2305V48.2739C40.5 47.9756 40.3814 47.6894 40.1705 47.4785C39.9595 47.2675 39.6734 47.149 39.375 47.1489H36.2197C35.8773 45.9497 35.4081 44.7976 34.8091 43.7036L37.0239 41.4844C37.2348 41.2734 37.3533 40.9873 37.3533 40.689C37.3533 40.3906 37.2348 40.1045 37.0239 39.8936L32.1108 34.9761C31.8999 34.7652 31.6137 34.6467 31.3154 34.6467C31.0171 34.6467 30.731 34.7652 30.52 34.9761L28.292 37.1997C27.1993 36.5976 26.0498 36.1217 24.8511 35.7759V32.625C24.851 32.3266 24.7325 32.0405 24.5215 31.8295C24.3106 31.6186 24.0244 31.5 23.7261 31.5H16.7739ZM56.25 31.812C51.4641 31.812 47.562 35.7142 47.562 40.5C47.562 45.286 51.4641 49.1924 56.25 49.1924C61.0359 49.1924 64.938 45.286 64.938 40.5C64.938 35.7142 61.0359 31.812 56.25 31.812ZM17.8989 33.75H22.6011V36.5098C22.6007 36.7649 22.687 37.0126 22.8459 37.2122C23.0048 37.4119 23.2268 37.5516 23.4756 37.6084C25.0676 37.9711 26.5883 38.5992 27.9712 39.4673C28.187 39.6025 28.4423 39.6604 28.6954 39.6317C28.9484 39.603 29.1842 39.4892 29.3643 39.3091L31.3154 37.3623L34.6377 40.689L32.6997 42.6313C32.5199 42.8105 32.406 43.0453 32.3765 43.2974C32.347 43.5495 32.4036 43.8041 32.5371 44.02C33.4014 45.4056 34.029 46.9266 34.3872 48.52C34.443 48.7688 34.5817 48.9913 34.7805 49.151C34.9793 49.3107 35.2264 49.3981 35.4814 49.3989H38.25V54.1055H35.4902C35.2351 54.1051 34.9874 54.1914 34.7877 54.3503C34.5881 54.5092 34.4484 54.7312 34.3916 54.98C34.0288 56.5719 33.4008 58.0927 32.5327 59.4756C32.3975 59.6914 32.3396 59.9467 32.3683 60.1998C32.397 60.4528 32.5108 60.6886 32.6909 60.8687L34.6377 62.8154L31.3154 66.1421L29.373 64.1997C29.193 64.0196 28.9572 63.9058 28.7042 63.8771C28.4511 63.8484 28.1958 63.9063 27.98 64.0415C26.5943 64.9057 25.0733 65.529 23.48 65.8872C23.2304 65.9432 23.0074 66.0825 22.8476 66.2822C22.6879 66.4819 22.6009 66.7301 22.6011 66.9858V69.75H17.8989V66.9902C17.8983 66.7358 17.8116 66.4892 17.6527 66.2904C17.4939 66.0917 17.2724 65.9527 17.0244 65.896C15.4324 65.5333 13.9117 64.9052 12.5288 64.0371C12.3135 63.9014 12.0584 63.8427 11.8054 63.8706C11.5524 63.8985 11.3163 64.0115 11.1357 64.1909L9.18457 66.1421L5.8623 62.8154L7.80029 60.873C7.98007 60.6939 8.09396 60.4591 8.12348 60.207C8.153 59.9549 8.09641 59.7002 7.96289 59.4844C7.09859 58.0988 6.47099 56.5778 6.11279 54.9844C6.05699 54.7356 5.91833 54.5131 5.71952 54.3534C5.52071 54.1937 5.27355 54.1063 5.01855 54.1055H2.25V49.3989H5.00977C5.26491 49.3993 5.51263 49.313 5.71225 49.1541C5.91188 48.9952 6.05157 48.7732 6.1084 48.5244C6.47116 46.9325 7.09923 45.4117 7.96729 44.0288C8.10247 43.813 8.16043 43.5577 8.13169 43.3046C8.10296 43.0516 7.98922 42.8158 7.80908 42.6357L5.8623 40.689L9.18457 37.3623L11.127 39.3047C11.307 39.4848 11.5428 39.5986 11.7958 39.6273C12.0489 39.656 12.3042 39.5981 12.52 39.4629C13.9057 38.5984 15.4267 37.9754 17.02 37.6172C17.2696 37.5612 17.4926 37.4219 17.6524 37.2222C17.8121 37.0225 17.8991 36.7743 17.8989 36.5186V33.75ZM56.25 34.062C59.8199 34.062 62.688 36.9301 62.688 40.5C62.688 44.0699 59.8199 46.9424 56.25 46.9424C52.6801 46.9424 49.812 44.0699 49.812 40.5C49.812 36.9301 52.6801 34.062 56.25 34.062ZM20.25 40.7329C14.1786 40.7329 9.23284 45.6786 9.23291 51.75C9.23298 57.8214 14.1787 62.7671 20.25 62.7671C26.3213 62.7671 31.267 57.8214 31.2671 51.75C31.2672 45.6786 26.3214 40.7329 20.25 40.7329ZM20.25 42.9829C25.1054 42.9829 29.0171 46.8947 29.0171 51.75C29.017 56.6053 25.1053 60.5171 20.25 60.5171C15.3947 60.5171 11.483 56.6053 11.4829 51.75C11.4829 46.8947 15.3946 42.9829 20.25 42.9829Z" fill="#061237"/>
</g>
<defs>
<clipPath id="clip0_501_124">
<rect width="72" height="72" fill="white"/>
</clipPath>
</defs>
</svg>
