<svg width="72" height="72" viewBox="0 0 72 72" fill="none" xmlns="http://www.w3.org/2000/svg">
<path d="M71.3718 51.2546V49.7851C71.3718 41.4554 64.5951 34.6786 56.2653 34.6786H50.6351V31.2289C51.8721 30.7705 52.756 29.5788 52.756 28.1844C52.756 26.7899 51.8721 25.5984 50.6351 25.1398V23.1386C51.8721 22.6802 52.756 21.4885 52.756 20.0941C52.756 18.6996 51.8721 17.5081 50.6351 17.0495V13.5262C53.2159 13.1002 55.191 10.8544 55.191 8.15486C55.191 5.15237 52.7483 2.70972 49.7458 2.70972H24.9249C21.9225 2.70972 19.4798 5.15237 19.4798 8.15486C19.4798 10.8543 21.4547 13.1002 24.0355 13.5262V14.9632H5.445C2.44266 14.9631 0 17.4057 0 20.4082C0 23.1078 1.97508 25.3536 4.55569 25.7795V68.1653C4.55569 68.7866 5.05941 69.2903 5.68069 69.2903H51.3952C52.0165 69.2903 52.5202 68.7866 52.5202 68.1653V65.5732C52.5202 64.8073 52.2873 64.0946 51.8888 63.5026C51.8909 63.4746 51.8919 63.4464 51.8919 63.4178V62.0381C51.8919 60.2858 51.591 58.6028 51.0398 57.0367H70.875C71.4963 57.0367 72 56.5329 72 55.9117V53.3195C72 52.5561 71.7682 51.8456 71.3718 51.2546ZM49.5103 27.1886C50.0593 27.1886 50.506 27.6354 50.506 28.1845C50.506 28.7335 50.0593 29.1801 49.5103 29.1801H43.5406C42.9916 29.1801 42.5448 28.7334 42.5448 28.1844C42.5448 27.6354 42.9915 27.1886 43.5406 27.1886H49.5103V27.1886ZM49.5103 19.0983C50.0593 19.0983 50.506 19.5451 50.506 20.0941C50.506 20.6431 50.0593 21.0898 49.5103 21.0898H43.5406C42.9916 21.0898 42.5448 20.6431 42.5448 20.0941C42.5448 19.5451 42.9915 19.0983 43.5406 19.0983H49.5103ZM21.7298 8.15486C21.7298 6.39311 23.1632 4.95972 24.9249 4.95972H49.7458C51.5076 4.95972 52.941 6.39297 52.941 8.15486C52.941 9.91675 51.5077 11.3499 49.7458 11.3499H24.9249C23.1632 11.3499 21.7298 9.91661 21.7298 8.15486ZM26.2855 13.5999H48.3853V16.8483H43.5406C41.7509 16.8483 40.2948 18.3043 40.2948 20.0941C40.2948 21.8838 41.7509 23.3398 43.5406 23.3398H48.3853V24.9386H43.5406C41.7509 24.9386 40.2948 26.3946 40.2948 28.1845C40.2948 29.9742 41.7509 31.4301 43.5406 31.4301H48.3853V35.8036C48.3853 36.4248 48.889 36.9286 49.5103 36.9286H56.2655C63.3258 36.9286 69.0743 42.6495 69.1208 49.6991C68.8514 49.6368 68.5711 49.6027 68.283 49.6027H45.3516C42.9157 47.9195 39.9639 46.9321 36.7855 46.9321H31.1555V43.4824C32.3923 43.0238 33.2762 41.8322 33.2762 40.4379C33.2762 39.0436 32.3923 37.8519 31.1555 37.3933V35.392C32.3923 34.9334 33.2762 33.7417 33.2762 32.3473C33.2762 30.953 32.3923 29.7615 31.1555 29.3029V25.7794C33.7362 25.3534 35.7112 23.1075 35.7112 20.4081C35.7112 17.4055 33.2685 14.9628 30.266 14.9628H26.2853V13.5999H26.2855ZM49.6417 61.9514C49.3722 61.8889 49.0913 61.8559 48.8032 61.8559H6.80569V25.8534H28.9055V29.1018H24.0608C22.2711 29.1018 20.815 30.5578 20.815 32.3476C20.815 34.1373 22.2711 35.5933 24.0608 35.5933H28.9055V37.1921H24.0608C22.2711 37.1921 20.815 38.6481 20.815 40.4379C20.815 42.2276 22.2711 43.6836 24.0608 43.6836H28.9055V48.0571C28.9055 48.6783 29.4092 49.1821 30.0305 49.1821H36.7855C43.8456 49.1821 49.5948 54.9023 49.6417 61.9514ZM30.0305 39.4421C30.5795 39.4421 31.0262 39.8889 31.0262 40.4379C31.0262 40.9869 30.5796 41.4336 30.0305 41.4336H24.0608C23.5118 41.4336 23.065 40.9869 23.065 40.4379C23.065 39.8889 23.5118 39.4421 24.0608 39.4421H30.0305ZM30.0305 31.3518C30.5795 31.3518 31.0262 31.7986 31.0262 32.3476C31.0262 32.8966 30.5796 33.3433 30.0305 33.3433H24.0608C23.5118 33.3433 23.065 32.8966 23.065 32.3474C23.065 31.7984 23.5118 31.3518 24.0608 31.3518H30.0305V31.3518ZM2.25 20.4082C2.25 18.6463 3.68325 17.2129 5.44514 17.2129H30.2662C32.0279 17.2129 33.4613 18.6462 33.4613 20.4082C33.4613 22.17 32.0279 23.6034 30.2662 23.6034H5.445C3.68325 23.6034 2.25 22.1701 2.25 20.4082ZM50.2702 67.0403H6.80569V64.106H48.8031C49.6121 64.106 50.2702 64.7643 50.2702 65.5733V67.0403V67.0403ZM69.75 54.7868H50.0342C49.4506 53.7248 48.7433 52.7403 47.9315 51.8527H68.2829C69.0919 51.8527 69.75 52.5108 69.75 53.3198V54.7868Z" fill="#061237"/>
</svg>
