<svg width="70" height="40" viewBox="0 0 70 40" fill="none" xmlns="http://www.w3.org/2000/svg">
<path d="M10.4414 26.75C10.2623 26.75 10.0857 26.7076 9.92617 26.6262L1.35142 22.2095C1.08705 22.0734 0.887286 21.8382 0.795796 21.5553C0.704306 21.2724 0.728529 20.9648 0.86317 20.6997L10.9364 0.802981C11.0033 0.670866 11.0956 0.553253 11.208 0.456885C11.3204 0.360517 11.4508 0.287292 11.5916 0.241408C11.7324 0.195524 11.8808 0.177886 12.0284 0.189503C12.176 0.20112 12.3199 0.241764 12.4518 0.309106L20.6092 4.47161C20.8711 4.60487 21.0704 4.83533 21.1646 5.11368C21.2588 5.39203 21.2403 5.69619 21.1132 5.96111L11.4562 26.1076C11.3909 26.2431 11.2993 26.3642 11.1867 26.4639C11.0741 26.5635 10.9427 26.6398 10.8003 26.6881C10.6847 26.7276 10.5636 26.7484 10.4414 26.75ZM3.3753 20.72L9.92729 24.095L18.61 5.98248L12.4338 2.83248L3.3753 20.72Z" fill="#061237"/>
<path d="M22.096 11.0945C21.9025 11.0944 21.7122 11.0444 21.5437 10.9493L18.2744 9.10772C18.1457 9.03525 18.0324 8.93814 17.9412 8.82192C17.85 8.7057 17.7826 8.57265 17.7428 8.43037C17.703 8.28808 17.6916 8.13935 17.7093 7.99267C17.7269 7.84599 17.7733 7.70422 17.8458 7.57547C17.9183 7.44672 18.0154 7.3335 18.1316 7.24228C18.2478 7.15105 18.3809 7.08362 18.5231 7.04382C18.6654 7.00402 18.8142 6.99263 18.9608 7.0103C19.1075 7.02798 19.2493 7.07438 19.378 7.14684L22.078 8.66672C23.1322 8.02772 25.4137 6.65184 26.8739 5.82722C29.2578 4.47722 30.9363 4.66284 32.8634 6.48872C33.0744 6.69516 33.1958 6.97626 33.2014 7.27138C33.207 7.56651 33.0964 7.85202 32.8935 8.06635C32.6905 8.28068 32.4114 8.40666 32.1164 8.41711C31.8214 8.42756 31.5342 8.32165 31.3165 8.12222C30.1195 6.98822 29.4963 6.92972 27.9809 7.78472C26.1044 8.84559 22.7193 10.9088 22.6844 10.9347C22.5067 11.0411 22.3031 11.0964 22.096 11.0945Z" fill="#061237"/>
<path d="M51.6923 30.6685C50.8726 30.6895 50.0638 30.476 49.3613 30.0531C48.3263 29.3624 43.7723 24.8961 42.8701 24.0085C42.6711 23.7968 42.5619 23.5163 42.565 23.2258C42.5682 22.9353 42.6837 22.6573 42.8872 22.4501C43.0907 22.2428 43.3665 22.1222 43.6569 22.1137C43.9473 22.1051 44.2297 22.2093 44.4451 22.4042C46.4701 24.4034 49.9441 27.739 50.6067 28.1811C51.0338 28.3785 51.5061 28.4571 51.9741 28.4088C52.4421 28.3605 52.8884 28.187 53.2662 27.9066C53.4431 27.7532 53.5841 27.5628 53.6794 27.3489C53.7747 27.135 53.8218 26.9028 53.8175 26.6687C53.8133 26.4346 53.7576 26.2043 53.6546 25.994C53.5515 25.7838 53.4036 25.5987 53.2212 25.4519C52.0714 24.1581 47.2947 19.5625 46.2462 18.5545C42.5876 17.2134 39.0397 15.5877 35.6352 13.6922L34.4517 14.4662C34.186 15.6997 33.4771 16.7928 32.4593 17.5386C32.1021 17.82 31.6874 18.0195 31.2445 18.1229C30.8017 18.2263 30.3415 18.2312 29.8966 18.1371C29.3566 18.0698 28.8367 17.8906 28.3701 17.6109C27.9034 17.3311 27.5002 16.9571 27.1864 16.5126C26.5882 15.2344 26.521 13.7711 26.9997 12.4435C27.9593 8.60274 29.5163 7.61386 31.6707 6.24586L32.1443 5.94323C34.5181 4.41886 36.5554 3.60661 38.7919 4.61348C40.1824 5.24011 45.1178 7.15149 46.5196 7.69374L51.2176 6.15361C51.499 6.06802 51.8027 6.09607 52.0637 6.23174C52.3247 6.36741 52.5222 6.59991 52.6139 6.87942C52.7055 7.15893 52.6841 7.46322 52.5541 7.7271C52.4241 7.99097 52.1959 8.19343 51.9184 8.29111L46.8391 9.95611C46.5931 10.0363 46.3271 10.03 46.0853 9.93811C45.8187 9.83461 39.5434 7.42036 37.8728 6.66661C36.8704 6.21661 35.8118 6.26273 33.3638 7.83549L32.8801 8.14486C30.9147 9.39249 29.9281 10.0202 29.1856 12.9891C28.8053 14.5101 28.9808 15.1266 29.1192 15.3516C29.2969 15.6486 29.7087 15.769 30.3646 15.9332C30.5053 15.957 30.6496 15.9491 30.787 15.9102C30.9244 15.8712 31.0514 15.8023 31.1588 15.7082C31.4761 15.4692 31.7411 15.1677 31.9375 14.8223C32.1339 14.477 32.2575 14.095 32.3007 13.7001C32.3154 13.5305 32.3684 13.3664 32.4557 13.2203C32.543 13.0741 32.6623 12.9497 32.8047 12.8564L34.9703 11.44C35.141 11.329 35.3386 11.2664 35.5421 11.2588C35.7456 11.2513 35.9473 11.2991 36.1257 11.3972C36.2022 11.4389 43.7869 15.5867 47.1091 16.4597C47.2937 16.5091 47.4631 16.6038 47.6018 16.7354C47.8448 16.9682 53.5643 22.4447 54.9076 23.9601C55.2798 24.3204 55.5749 24.7525 55.7751 25.2303C55.9753 25.7081 56.0763 26.2215 56.0721 26.7395C56.0679 27.2575 55.9585 27.7692 55.7506 28.2437C55.5427 28.7182 55.2406 29.1454 54.8626 29.4996C53.9969 30.2849 52.8605 30.7039 51.6923 30.6685Z" fill="#061237"/>
<path d="M54.0656 25.83C53.8078 25.8298 53.5579 25.7411 53.3577 25.5787C53.1575 25.4163 53.0191 25.1901 52.9658 24.9379C52.9124 24.6857 52.9473 24.4228 53.0645 24.1933C53.1818 23.9637 53.3744 23.7814 53.61 23.6768L57.5565 21.9285C57.6921 21.8645 57.8392 21.8282 57.9891 21.8218C58.139 21.8154 58.2886 21.8391 58.4292 21.8914C58.5698 21.9438 58.6985 22.0237 58.8078 22.1265C58.917 22.2293 59.0046 22.3529 59.0654 22.49C59.1262 22.6272 59.1589 22.7751 59.1617 22.9251C59.1644 23.0751 59.1372 23.2241 59.0815 23.3634C59.0258 23.5027 58.9428 23.6295 58.8374 23.7362C58.732 23.843 58.6063 23.9276 58.4677 23.985L54.5201 25.7378C54.3767 25.7997 54.2219 25.8312 54.0656 25.83Z" fill="#061237"/>
<path d="M59.2257 26.75C59.0015 26.7499 58.7824 26.6828 58.5966 26.5573C58.4108 26.4319 58.2667 26.2537 58.1828 26.0458L49.6913 4.97901C49.6346 4.83852 49.6068 4.68801 49.6096 4.53651C49.6125 4.38502 49.6459 4.23566 49.7079 4.09739C49.7699 3.95913 49.8591 3.83481 49.9704 3.7319C50.0816 3.62899 50.2124 3.54961 50.3551 3.49851L59.4293 0.251762C59.7038 0.15357 60.0057 0.165781 60.2714 0.285822C60.5371 0.405863 60.7458 0.624358 60.8536 0.895262L69.1786 21.791C69.233 21.9292 69.2596 22.0767 69.2568 22.2252C69.2539 22.3737 69.2217 22.5201 69.162 22.6561C69.1023 22.792 69.0162 22.9148 68.9088 23.0173C68.8014 23.1199 68.6748 23.2002 68.5362 23.2535L59.6284 26.6713C59.5002 26.722 59.3636 26.7487 59.2257 26.75ZM52.2124 5.22201L59.8523 24.1749L66.6631 21.5649L59.1649 2.73576L52.2124 5.22201ZM46.6234 34.0805C45.6961 34.1083 44.7904 33.7967 44.0764 33.2041C42.5701 31.8654 38.6978 27.9954 38.5336 27.8311C38.3286 27.619 38.2153 27.3348 38.2178 27.0398C38.2204 26.7448 38.3387 26.4627 38.5473 26.2541C38.7559 26.0455 39.038 25.9272 39.333 25.9246C39.628 25.9221 39.9121 26.0355 40.1243 26.2404C40.1637 26.2798 44.1147 30.2285 45.5704 31.5279C45.8722 31.7117 46.2139 31.82 46.5664 31.8435C46.919 31.867 47.272 31.805 47.5954 31.6629C48.1237 31.4827 48.5924 31.1609 48.9502 30.7326C49.3081 30.3043 49.5415 29.7859 49.6249 29.234C49.6501 29.0884 49.7036 28.9492 49.7825 28.8243C49.8614 28.6994 49.9642 28.5913 50.0849 28.5061C50.2056 28.4209 50.3419 28.3603 50.4861 28.3278C50.6302 28.2953 50.7793 28.2915 50.9249 28.3166C51.0705 28.3417 51.2097 28.3952 51.3346 28.4742C51.4595 28.5531 51.5676 28.6558 51.6528 28.7765C51.738 28.8972 51.7986 29.0336 51.8311 29.1777C51.8636 29.3218 51.8674 29.4709 51.8423 29.6165C51.6894 30.5616 51.2833 31.4477 50.6673 32.1805C50.0513 32.9134 49.2483 33.4658 48.3436 33.779C47.7911 33.9751 47.2097 34.077 46.6234 34.0805Z" fill="#061237"/>
<path d="M41.3882 36.8077C40.4628 36.8472 39.5584 36.5243 38.8671 35.9077L34.8711 31.9117L36.463 30.3198L40.459 34.3158C40.7062 34.4547 40.9799 34.5401 41.2623 34.5664C41.5446 34.5928 41.8294 34.5595 42.0981 34.4688C42.6142 34.3421 43.0867 34.0791 43.4663 33.7072C43.8459 33.3353 44.1186 32.8683 44.2558 32.3549C44.2975 32.2117 44.3671 32.0782 44.4608 31.9622C44.5544 31.8462 44.6702 31.7499 44.8014 31.679C44.9326 31.6081 45.0766 31.564 45.225 31.5493C45.3734 31.5346 45.5233 31.5495 45.6658 31.5932C45.8084 31.6369 45.9409 31.7085 46.0555 31.8038C46.1702 31.8992 46.2648 32.0164 46.3337 32.1486C46.4027 32.2809 46.4446 32.4255 46.4572 32.5741C46.4697 32.7227 46.4526 32.8723 46.4068 33.0142C46.0939 34.1044 45.4355 35.0637 44.5307 35.7477C43.626 36.4318 42.5236 36.8037 41.3893 36.8077H41.3882Z" fill="#061237"/>
<path d="M37.0995 39.8121C36.1798 39.8317 35.2804 39.5404 34.5468 38.9853C32.8897 37.6589 31.4947 36.5699 31.4925 36.5688C31.3736 36.4787 31.2738 36.3659 31.199 36.2369C31.1241 36.108 31.0756 35.9654 31.0563 35.8175C31.037 35.6697 31.0474 35.5194 31.0867 35.3756C31.126 35.2317 31.1935 35.0971 31.2853 34.9796C31.3771 34.8621 31.4913 34.764 31.6214 34.691C31.7514 34.618 31.8947 34.5716 32.0428 34.5545C32.191 34.5374 32.3411 34.5499 32.4843 34.5914C32.6276 34.6328 32.7612 34.7023 32.8773 34.7958C32.8773 34.7958 34.2825 35.8926 35.9531 37.2291C36.309 37.441 36.7138 37.5568 37.1279 37.5653C37.5421 37.5738 37.9513 37.4746 38.3156 37.2775C38.6413 37.1375 38.9169 36.902 39.1061 36.6022C39.2953 36.3023 39.3892 35.9522 39.3753 35.5979C39.3662 35.2997 39.476 35.0101 39.6804 34.7928C39.8849 34.5755 40.1672 34.4483 40.4655 34.4391C40.7628 34.4339 41.0504 34.5451 41.2669 34.749C41.4834 34.9528 41.6116 35.2333 41.6242 35.5304C41.6507 36.314 41.4465 37.0882 41.0369 37.7568C40.6273 38.4254 40.0304 38.959 39.3202 39.2913C38.6298 39.633 37.8699 39.8113 37.0995 39.8121Z" fill="#061237"/>
<path d="M28.669 39.2914C28.3033 39.2901 27.9414 39.2174 27.6036 39.0776C26.6862 38.6275 25.93 37.9054 25.438 37.0099C24.6396 37.1648 23.8122 37.0405 23.0946 36.6577C22.4926 36.2632 21.9752 35.7529 21.5723 35.1565C21.1694 34.56 20.8891 33.8895 20.7478 33.1838C20.6885 32.8964 20.7438 32.5973 20.902 32.3501C21.8166 30.9236 23.1958 28.7062 23.4017 28.2439C23.5869 27.875 23.8497 27.5505 24.1721 27.2926C24.4944 27.0348 24.8687 26.8496 25.2692 26.7499C25.814 26.6071 26.3839 26.5879 26.9371 26.6938C27.4903 26.7997 28.0129 27.028 28.4665 27.3619C28.9691 27.6946 29.3728 28.1568 29.6349 28.6996C29.8971 29.2425 30.008 29.846 29.956 30.4466C30.4911 30.4697 31.015 30.6072 31.4924 30.85C31.9698 31.0928 32.3896 31.4352 32.7235 31.854C33.0477 32.3607 33.2547 32.9335 33.3292 33.5304C33.4038 34.1274 33.344 34.7335 33.1543 35.3044C32.5643 36.9513 31.3528 38.3017 29.7793 39.0664C29.428 39.2149 29.0504 39.2914 28.669 39.2914ZM27.3325 35.7802C27.6857 36.3776 28.3168 37.2349 28.9075 36.9885C29.888 36.4778 30.643 35.6198 31.0247 34.5821C31.0998 34.3525 31.1285 34.1102 31.1092 33.8694C31.0899 33.6286 31.0229 33.394 30.9122 33.1792C30.7411 33.0116 30.5379 32.8802 30.3148 32.7928C30.0918 32.7055 29.8534 32.664 29.614 32.6707L27.3325 35.7802ZM23.0676 33.1365C23.2466 33.7616 23.6345 34.3064 24.1667 34.68C24.3328 34.7652 24.5147 34.8155 24.701 34.8277C24.8874 34.8399 25.0742 34.8138 25.2501 34.7509L27.652 30.6334C27.7474 30.3789 27.7536 30.0996 27.6693 29.8412C27.5851 29.5828 27.4155 29.3607 27.1885 29.2114C27.0157 29.0752 26.8163 28.9767 26.6032 28.9222C26.39 28.8678 26.1679 28.8586 25.951 28.8953C25.7594 28.9268 25.5847 29.0233 25.456 29.1686C25.159 29.8268 23.7302 32.0947 23.0676 33.1365Z" fill="#061237"/>
<path d="M20.07 34.8937C19.8035 34.8945 19.5382 34.8566 19.2825 34.7812C17.3554 34.2018 16.6005 31.7066 16.5207 31.4242C16.4803 31.281 16.4688 31.1311 16.4867 30.9834C16.5047 30.8357 16.5518 30.693 16.6253 30.5636C17.5815 28.9026 18.6391 27.302 19.7922 25.7711C20.371 25.018 21.2097 24.5078 22.1445 24.3399C23.0794 24.172 24.0432 24.3586 24.8479 24.8632C25.9099 25.6001 26.6884 27.2032 25.3857 29.298C25.3077 29.4235 25.2058 29.5325 25.0858 29.6187C24.9657 29.7049 24.8299 29.7666 24.686 29.8003C24.5421 29.834 24.3929 29.839 24.2471 29.8151C24.1012 29.7911 23.9615 29.7387 23.836 29.6608C23.7104 29.5828 23.6014 29.4809 23.5152 29.3609C23.429 29.2408 23.3673 29.105 23.3336 28.9611C23.2999 28.8172 23.2949 28.668 23.3188 28.5222C23.3428 28.3764 23.3952 28.2367 23.4732 28.1111C23.7623 27.6442 24.0132 27.0243 23.5643 26.7127C23.2362 26.5335 22.8546 26.4783 22.4892 26.5572C22.1239 26.6361 21.799 26.8438 21.5742 27.1425C20.5859 28.4556 19.6713 29.8228 18.8348 31.2375C19.0812 31.8258 19.5008 32.4997 19.9294 32.6268C20.3085 32.7393 20.8294 32.3501 21.1118 32.1093C21.3376 31.9142 21.6318 31.8168 21.9295 31.8385C22.2272 31.8602 22.504 31.9993 22.6992 32.2252C22.8943 32.4511 22.9917 32.7452 22.97 33.0429C22.9482 33.3406 22.8091 33.6174 22.5833 33.8126C21.9069 34.4696 21.0122 34.8545 20.07 34.8937Z" fill="#061237"/>
<path d="M17.6012 32.2398C17.4776 32.2397 17.3548 32.2192 17.2379 32.1791C17.0477 32.115 12.5635 30.5478 12.5635 27.0356C12.5634 26.9176 12.5816 26.8003 12.6175 26.688C13.0245 25.5677 13.582 24.508 14.2746 23.538C14.79 22.9221 15.5019 22.5026 16.2904 22.3501C17.0788 22.1977 17.8958 22.3216 18.6036 22.701C19.2699 22.9962 19.8013 23.5306 20.0929 24.1985C20.3845 24.8665 20.4151 25.6195 20.1786 26.3088C19.4429 28.6781 18.688 31.386 18.6801 31.4141C18.614 31.6506 18.4724 31.859 18.2768 32.0075C18.0812 32.156 17.8423 32.2364 17.5967 32.2365L17.6012 32.2398ZM14.8225 27.21C14.935 28.263 16.0127 29.064 16.8767 29.5443C17.1704 28.5183 17.6057 27.0255 18.0332 25.6451C18.0725 25.5574 18.0925 25.4623 18.0921 25.3663C18.0917 25.2702 18.0707 25.1753 18.0307 25.088C17.9906 25.0007 17.9324 24.9229 17.8599 24.8599C17.7874 24.7969 17.7023 24.7501 17.6102 24.7226C17.3778 24.5915 17.1117 24.5322 16.8456 24.5522C16.5795 24.5722 16.3253 24.6707 16.1151 24.8351C15.5935 25.5739 15.1597 26.3708 14.8225 27.21Z" fill="#061237"/>
<path d="M14.6122 26.2203C14.3857 26.22 14.1646 26.1514 13.9777 26.0234L11.0269 23.9984C10.7806 23.8298 10.6113 23.5703 10.5564 23.2769C10.5014 22.9836 10.5652 22.6804 10.7338 22.4341C10.9024 22.1878 11.1619 22.0185 11.4553 21.9636C11.7486 21.9086 12.0518 21.9725 12.2981 22.141L15.249 24.166C15.4478 24.3017 15.5978 24.4975 15.6771 24.7247C15.7563 24.9519 15.7607 25.1985 15.6894 25.4284C15.6182 25.6582 15.4751 25.8592 15.2812 26.0017C15.0874 26.1442 14.8529 26.2208 14.6122 26.2203Z" fill="#061237"/>
</svg>
