<svg width="72" height="72" viewBox="0 0 72 72" fill="none" xmlns="http://www.w3.org/2000/svg">
<g clip-path="url(#clip0_501_340)">
<path d="M32.0625 55.125C31.2837 55.125 30.5225 55.3559 29.8749 55.7886C29.2274 56.2212 28.7227 56.8362 28.4247 57.5557C28.1267 58.2752 28.0487 59.0669 28.2007 59.8307C28.3526 60.5945 28.7276 61.2961 29.2783 61.8467C29.8289 62.3974 30.5305 62.7724 31.2943 62.9243C32.0581 63.0763 32.8498 62.9983 33.5693 62.7003C34.2888 62.4023 34.9038 61.8976 35.3364 61.2501C35.7691 60.6025 36 59.8413 36 59.0625C35.9988 58.0186 35.5836 57.0177 34.8454 56.2796C34.1073 55.5414 33.1064 55.1262 32.0625 55.125ZM32.0625 60.75C31.7287 60.75 31.4025 60.651 31.125 60.4656C30.8475 60.2802 30.6312 60.0166 30.5035 59.7083C30.3757 59.3999 30.3423 59.0606 30.4074 58.7333C30.4725 58.4059 30.6333 58.1053 30.8693 57.8693C31.1053 57.6333 31.4059 57.4725 31.7333 57.4074C32.0606 57.3423 32.3999 57.3757 32.7083 57.5035C33.0166 57.6312 33.2802 57.8475 33.4656 58.125C33.651 58.4025 33.75 58.7287 33.75 59.0625C33.7495 59.5099 33.5716 59.9388 33.2552 60.2552C32.9388 60.5716 32.5099 60.7495 32.0625 60.75ZM42.1875 55.125C41.4087 55.125 40.6475 55.3559 39.9999 55.7886C39.3524 56.2212 38.8477 56.8362 38.5497 57.5557C38.2517 58.2752 38.1737 59.0669 38.3257 59.8307C38.4776 60.5945 38.8526 61.2961 39.4033 61.8467C39.9539 62.3974 40.6555 62.7724 41.4193 62.9243C42.1831 63.0763 42.9748 62.9983 43.6943 62.7003C44.4138 62.4023 45.0288 61.8976 45.4614 61.2501C45.8941 60.6025 46.125 59.8413 46.125 59.0625C46.1238 58.0186 45.7086 57.0177 44.9704 56.2796C44.2323 55.5414 43.2314 55.1262 42.1875 55.125ZM42.1875 60.75C41.8537 60.75 41.5275 60.651 41.25 60.4656C40.9725 60.2802 40.7562 60.0166 40.6285 59.7083C40.5007 59.3999 40.4673 59.0606 40.5324 58.7333C40.5975 58.4059 40.7583 58.1053 40.9943 57.8693C41.2303 57.6333 41.5309 57.4725 41.8583 57.4074C42.1856 57.3423 42.5249 57.3757 42.8333 57.5035C43.1416 57.6312 43.4052 57.8475 43.5906 58.125C43.776 58.4025 43.875 58.7287 43.875 59.0625C43.8745 59.5099 43.6966 59.9388 43.3802 60.2552C43.0638 60.5716 42.6349 60.7495 42.1875 60.75ZM52.3125 55.125C51.5337 55.125 50.7725 55.3559 50.1249 55.7886C49.4774 56.2212 48.9727 56.8362 48.6747 57.5557C48.3767 58.2752 48.2987 59.0669 48.4507 59.8307C48.6026 60.5945 48.9776 61.2961 49.5283 61.8467C50.0789 62.3974 50.7805 62.7724 51.5443 62.9243C52.3081 63.0763 53.0998 62.9983 53.8193 62.7003C54.5388 62.4023 55.1538 61.8976 55.5864 61.2501C56.0191 60.6025 56.25 59.8413 56.25 59.0625C56.2488 58.0186 55.8336 57.0177 55.0954 56.2796C54.3573 55.5414 53.3564 55.1262 52.3125 55.125ZM52.3125 60.75C51.9787 60.75 51.6525 60.651 51.375 60.4656C51.0975 60.2802 50.8812 60.0166 50.7535 59.7083C50.6257 59.3999 50.5923 59.0606 50.6574 58.7333C50.7225 58.4059 50.8833 58.1053 51.1193 57.8693C51.3553 57.6333 51.6559 57.4725 51.9833 57.4074C52.3106 57.3423 52.6499 57.3757 52.9583 57.5035C53.2666 57.6312 53.5302 57.8475 53.7156 58.125C53.901 58.4025 54 58.7287 54 59.0625C53.9995 59.5099 53.8216 59.9388 53.5052 60.2552C53.1888 60.5716 52.7599 60.7495 52.3125 60.75ZM62.4375 55.125C61.6587 55.125 60.8975 55.3559 60.2499 55.7886C59.6024 56.2212 59.0977 56.8362 58.7997 57.5557C58.5017 58.2752 58.4237 59.0669 58.5757 59.8307C58.7276 60.5945 59.1026 61.2961 59.6533 61.8467C60.2039 62.3974 60.9055 62.7724 61.6693 62.9243C62.4331 63.0763 63.2248 62.9983 63.9443 62.7003C64.6638 62.4023 65.2788 61.8976 65.7114 61.2501C66.1441 60.6025 66.375 59.8413 66.375 59.0625C66.3738 58.0186 65.9586 57.0177 65.2204 56.2796C64.4823 55.5414 63.4814 55.1262 62.4375 55.125ZM62.4375 60.75C62.1037 60.75 61.7775 60.651 61.5 60.4656C61.2225 60.2802 61.0062 60.0166 60.8785 59.7083C60.7507 59.3999 60.7173 59.0606 60.7824 58.7333C60.8475 58.4059 61.0083 58.1053 61.2443 57.8693C61.4803 57.6333 61.7809 57.4725 62.1083 57.4074C62.4356 57.3423 62.7749 57.3757 63.0833 57.5035C63.3916 57.6312 63.6552 57.8475 63.8406 58.125C64.026 58.4025 64.125 58.7287 64.125 59.0625C64.1245 59.5099 63.9466 59.9388 63.6302 60.2552C63.3138 60.5716 62.8849 60.7495 62.4375 60.75Z" fill="#061237"/>
<path d="M70.875 65.25H69.2794C70.5284 64.1008 71.4012 62.6012 71.7835 60.9476C72.1658 59.294 72.0397 57.5634 71.4218 55.9827C70.8039 54.4019 69.7229 53.0446 68.3206 52.0886C66.9182 51.1326 65.2597 50.6225 63.5625 50.625H60.75V47.25H65.25C65.5484 47.25 65.8345 47.1315 66.0455 46.9205C66.2565 46.7095 66.375 46.4234 66.375 46.125V29.3269C66.3763 28.6727 66.2383 28.0258 65.9702 27.4291C65.702 26.8324 65.3099 26.2996 64.8199 25.8662C64.3455 25.4478 63.7876 25.1351 63.1831 24.949C62.5786 24.7628 61.9414 24.7073 61.3139 24.7863L41.5374 27.3142L21.7664 10.4893C21.5914 11.2624 21.2808 11.9983 20.849 12.663L38.5191 27.7L34.6053 28.2003L20.0414 13.6792C19.5105 14.2291 18.8904 14.6852 18.2073 15.0282L31.7922 28.573C30.7548 28.7805 29.8218 29.3421 29.1528 30.1617C28.4838 30.9813 28.1205 32.0079 28.125 33.0658V46.125C28.125 46.4234 28.2435 46.7095 28.4545 46.9205C28.6655 47.1315 28.9516 47.25 29.25 47.25H33.75V50.625H30.9375C29.2403 50.6225 27.5818 51.1326 26.1794 52.0886C24.7771 53.0446 23.6961 54.4019 23.0782 55.9827C22.4603 57.5634 22.3342 59.294 22.7165 60.9476C23.0988 62.6012 23.9716 64.1008 25.2206 65.25H1.125C0.826631 65.25 0.540483 65.3685 0.329505 65.5795C0.118526 65.7905 0 66.0766 0 66.375C0 66.6734 0.118526 66.9595 0.329505 67.1705C0.540483 67.3815 0.826631 67.5 1.125 67.5H70.875C71.1734 67.5 71.4595 67.3815 71.6705 67.1705C71.8815 66.9595 72 66.6734 72 66.375C72 66.0766 71.8815 65.7905 71.6705 65.5795C71.4595 65.3685 71.1734 65.25 70.875 65.25ZM30.375 45V33.0658C30.3681 32.5071 30.5645 31.9648 30.9277 31.5401C31.2908 31.1154 31.7959 30.8371 32.349 30.7571L61.5992 27.0181C61.9202 26.9875 62.2441 27.0245 62.5499 27.1268C62.8557 27.2291 63.1366 27.3943 63.3746 27.6119C63.6126 27.8294 63.8023 28.0944 63.9316 28.3899C64.0608 28.6853 64.1267 29.0045 64.125 29.3269V45H30.375ZM58.5 47.25V50.625H36V47.25H58.5ZM63.5625 65.25H30.9375C29.2965 65.25 27.7227 64.5981 26.5623 63.4377C25.4019 62.2773 24.75 60.7035 24.75 59.0625C24.75 57.4215 25.4019 55.8477 26.5623 54.6873C27.7227 53.5269 29.2965 52.875 30.9375 52.875H63.5625C65.2035 52.875 66.7773 53.5269 67.9377 54.6873C69.0981 55.8477 69.75 57.4215 69.75 59.0625C69.75 60.7035 69.0981 62.2773 67.9377 63.4377C66.7773 64.5981 65.2035 65.25 63.5625 65.25ZM15.1875 13.5C16.0775 13.5 16.9475 13.2361 17.6876 12.7416C18.4276 12.2471 19.0044 11.5443 19.345 10.7221C19.6856 9.89981 19.7747 8.99501 19.601 8.1221C19.4274 7.24918 18.9988 6.44736 18.3695 5.81802C17.7401 5.18868 16.9383 4.7601 16.0654 4.58647C15.1925 4.41283 14.2877 4.50195 13.4654 4.84254C12.6432 5.18314 11.9404 5.75991 11.4459 6.49994C10.9514 7.23996 10.6875 8.10999 10.6875 9C10.6889 10.1931 11.1634 11.3369 12.007 12.1805C12.8506 13.0241 13.9944 13.4986 15.1875 13.5ZM15.1875 6.75C15.6325 6.75 16.0675 6.88196 16.4375 7.1292C16.8075 7.37643 17.0959 7.72783 17.2662 8.13896C17.4365 8.5501 17.4811 9.0025 17.3943 9.43896C17.3075 9.87541 17.0932 10.2763 16.7785 10.591C16.4638 10.9057 16.0629 11.12 15.6265 11.2068C15.19 11.2936 14.7376 11.249 14.3265 11.0787C13.9153 10.9084 13.5639 10.62 13.3167 10.25C13.0695 9.88002 12.9375 9.44501 12.9375 9C12.9382 8.40347 13.1755 7.83157 13.5973 7.40977C14.0191 6.98796 14.591 6.75068 15.1875 6.75Z" fill="#061237"/>
<path d="M5.62518 51.7501H23.6252C24.2217 51.7494 24.7936 51.5121 25.2154 51.0903C25.6372 50.6685 25.8745 50.0966 25.8752 49.5001V45.0001C25.8845 44.611 25.8187 44.2237 25.6815 43.8595C25.4185 43.2666 24.6652 43.1033 24.1547 42.8197L17.4568 39.0987C17.7896 38.8511 18.0857 38.5577 18.3364 38.2273C18.4252 38.1092 18.49 37.9749 18.5269 37.8318C18.5639 37.6888 18.5723 37.5399 18.5517 37.3936C18.5311 37.2473 18.4819 37.1065 18.4068 36.9792C18.3318 36.8519 18.2325 36.7407 18.1144 36.6518C17.9964 36.563 17.8621 36.4982 17.719 36.4613C17.576 36.4243 17.4271 36.4159 17.2808 36.4365C17.1345 36.4571 16.9937 36.5063 16.8664 36.5814C16.7391 36.6564 16.6279 36.7557 16.539 36.8737C16.3597 37.1222 16.1246 37.3253 15.8527 37.4666C15.5808 37.6079 15.2796 37.6836 14.9732 37.6876C14.4153 37.6316 13.8982 37.3704 13.5221 36.9546C13.1459 36.5389 12.9377 35.9982 12.9377 35.4376C12.9377 34.8769 13.1459 34.3363 13.5221 33.9205C13.8982 33.5047 14.4153 33.2435 14.9732 33.1876C15.3033 33.2182 15.6333 33.1275 15.9013 32.9323C16.0295 32.8264 16.1329 32.6936 16.204 32.5433C16.2751 32.393 16.3122 32.2288 16.3127 32.0626V26.9062L19.5347 21.3792C19.6344 21.2082 19.6872 21.014 19.6878 20.8161C19.6885 20.6182 19.6369 20.4236 19.5383 20.252C19.4397 20.0805 19.2976 19.9379 19.1263 19.8388C18.955 19.7397 18.7606 19.6875 18.5627 19.6876H16.3127V15.6484C15.5688 15.7839 14.8066 15.7839 14.0627 15.6484V19.6876H11.8127C11.6124 19.6875 11.4158 19.741 11.243 19.8424C11.0703 19.9438 10.9278 20.0895 10.8302 20.2644C10.7326 20.4392 10.6835 20.637 10.6879 20.8372C10.6923 21.0375 10.75 21.2329 10.8552 21.4033L14.0627 26.6015V31.0421C13.0871 31.2865 12.2227 31.8536 11.6101 32.6513C10.9974 33.4489 10.6723 34.4302 10.6877 35.4359C10.6845 36.0829 10.8182 36.7233 11.0801 37.315C11.342 37.9066 11.7262 38.4361 12.2073 38.8688L5.09565 42.8197C4.47765 42.9835 3.93222 43.3493 3.54618 43.8589C3.3749 44.2132 3.31527 44.6111 3.37518 45.0001V49.5001C3.37587 50.0966 3.61314 50.6685 4.03495 51.0903C4.45676 51.5121 5.02866 51.7494 5.62518 51.7501ZM13.8287 21.9376H16.6046L15.256 24.2507L13.8287 21.9376ZM14.6252 40.0996L19.396 42.7501H9.85437L14.6252 40.0996ZM5.62518 44.9979L23.6252 45.0023L23.6266 49.5001H5.62518V44.9979Z" fill="#061237"/>
</g>
<defs>
<clipPath id="clip0_501_340">
<rect width="72" height="72" fill="white"/>
</clipPath>
</defs>
</svg>
