<svg width="50" height="66" viewBox="0 0 50 66" fill="none" xmlns="http://www.w3.org/2000/svg">
<path d="M1.9375 28.6127C2.23587 28.6127 2.52202 28.4942 2.73299 28.2832C2.94397 28.0722 3.0625 27.7861 3.0625 27.4877V25.0127C3.0625 24.7143 2.94397 24.4282 2.73299 24.2172C2.52202 24.0062 2.23587 23.8877 1.9375 23.8877C1.63913 23.8877 1.35298 24.0062 1.14201 24.2172C0.931027 24.4282 0.8125 24.7143 0.8125 25.0127V27.4877C0.8125 27.6354 0.841599 27.7817 0.898135 27.9182C0.954672 28.0547 1.03754 28.1787 1.14201 28.2832C1.24647 28.3877 1.37049 28.4705 1.50698 28.5271C1.64347 28.5836 1.78976 28.6127 1.9375 28.6127Z" fill="#061237"/>
<path d="M49.4125 13.3125C49.4125 13.0141 49.294 12.728 49.083 12.517C48.872 12.306 48.5859 12.1875 48.2875 12.1875L38.6125 0.825C38.5077 0.68528 38.3718 0.571875 38.2156 0.493769C38.0594 0.415663 37.8871 0.375 37.7125 0.375H8.2375C6.26827 0.375 4.37969 1.15727 2.98723 2.54973C1.59477 3.94219 0.8125 5.83077 0.8125 7.8V21.8625C0.8125 22.1609 0.931027 22.447 1.14201 22.658C1.35298 22.869 1.63913 22.9875 1.9375 22.9875C2.23587 22.9875 2.52202 22.869 2.73299 22.658C2.94397 22.447 3.0625 22.1609 3.0625 21.8625V7.8C3.0625 6.42751 3.60772 5.11122 4.57822 4.14072C5.54872 3.17022 6.86501 2.625 8.2375 2.625H36.5875V13.2C36.5875 13.4984 36.706 13.7845 36.917 13.9955C37.128 14.2065 37.4141 14.325 37.7125 14.325H46.9375V58.2C46.9375 59.5725 46.3923 60.8888 45.4218 61.8593C44.4513 62.8298 43.135 63.375 41.7625 63.375H8.2375C6.86501 63.375 5.54872 62.8298 4.57822 61.8593C3.60772 60.8888 3.0625 59.5725 3.0625 58.2V31.0875C3.0625 30.7891 2.94397 30.503 2.73299 30.292C2.52202 30.081 2.23587 29.9625 1.9375 29.9625C1.63913 29.9625 1.35298 30.081 1.14201 30.292C0.931027 30.503 0.8125 30.7891 0.8125 31.0875V58.2C0.8125 60.1692 1.59477 62.0578 2.98723 63.4503C4.37969 64.8427 6.26827 65.625 8.2375 65.625H41.7625C43.7317 65.625 45.6203 64.8427 47.0128 63.4503C48.4052 62.0578 49.1875 60.1692 49.1875 58.2V13.875C49.3125 13.7116 49.3903 13.517 49.4125 13.3125ZM38.8375 4.65L45.25 12.1875H38.8375V4.65Z" fill="#061237"/>
<path d="M18.4754 13.6499H9.02539C8.72702 13.6499 8.44088 13.7684 8.2299 13.9794C8.01892 14.1904 7.90039 14.4765 7.90039 14.7749V25.6874C7.90039 25.9858 8.01892 26.2719 8.2299 26.4829C8.44088 26.6939 8.72702 26.8124 9.02539 26.8124H18.3629C18.6613 26.8124 18.9474 26.6939 19.1584 26.4829C19.3694 26.2719 19.4879 25.9858 19.4879 25.6874V14.7749C19.4893 14.495 19.3863 14.2247 19.1991 14.0167C19.0119 13.8087 18.7539 13.6779 18.4754 13.6499ZM17.3504 24.5624H10.1504V15.8999H17.2379L17.3504 24.5624ZM40.8629 33.3374H19.1504C18.852 33.3374 18.5659 33.4559 18.3549 33.6669C18.1439 33.8779 18.0254 34.164 18.0254 34.4624C18.0254 34.7608 18.1439 35.0469 18.3549 35.2579C18.5659 35.4689 18.852 35.5874 19.1504 35.5874H40.8629C41.1613 35.5874 41.4474 35.4689 41.6584 35.2579C41.8694 35.0469 41.9879 34.7608 41.9879 34.4624C41.9879 34.164 41.8694 33.8779 41.6584 33.6669C41.4474 33.4559 41.1613 33.3374 40.8629 33.3374ZM9.13789 35.5874H15.6629C15.9613 35.5874 16.2474 35.4689 16.4584 35.2579C16.6694 35.0469 16.7879 34.7608 16.7879 34.4624C16.7879 34.164 16.6694 33.8779 16.4584 33.6669C16.2474 33.4559 15.9613 33.3374 15.6629 33.3374H9.13789C8.83952 33.3374 8.55338 33.4559 8.3424 33.6669C8.13142 33.8779 8.01289 34.164 8.01289 34.4624C8.01289 34.7608 8.13142 35.0469 8.3424 35.2579C8.55338 35.4689 8.83952 35.5874 9.13789 35.5874ZM40.8629 40.0874H30.9629C30.6645 40.0874 30.3784 40.2059 30.1674 40.4169C29.9564 40.6279 29.8379 40.914 29.8379 41.2124C29.8379 41.5108 29.9564 41.7969 30.1674 42.0079C30.3784 42.2189 30.6645 42.3374 30.9629 42.3374H40.8629C41.1613 42.3374 41.4474 42.2189 41.6584 42.0079C41.8694 41.7969 41.9879 41.5108 41.9879 41.2124C41.9879 40.914 41.8694 40.6279 41.6584 40.4169C41.4474 40.2059 41.1613 40.0874 40.8629 40.0874ZM9.13789 42.3374H27.3629C27.6613 42.3374 27.9474 42.2189 28.1584 42.0079C28.3694 41.7969 28.4879 41.5108 28.4879 41.2124C28.4879 40.914 28.3694 40.6279 28.1584 40.4169C27.9474 40.2059 27.6613 40.0874 27.3629 40.0874H9.13789C8.83952 40.0874 8.55338 40.2059 8.3424 40.4169C8.13142 40.6279 8.01289 40.914 8.01289 41.2124C8.01289 41.5108 8.13142 41.7969 8.3424 42.0079C8.55338 42.2189 8.83952 42.3374 9.13789 42.3374ZM40.8629 46.8374H24.2129C23.9145 46.8374 23.6284 46.9559 23.4174 47.1669C23.2064 47.3779 23.0879 47.664 23.0879 47.9624C23.0879 48.2608 23.2064 48.5469 23.4174 48.7579C23.6284 48.9689 23.9145 49.0874 24.2129 49.0874H40.8629C41.1613 49.0874 41.4474 48.9689 41.6584 48.7579C41.8694 48.5469 41.9879 48.2608 41.9879 47.9624C41.9879 47.664 41.8694 47.3779 41.6584 47.1669C41.4474 46.9559 41.1613 46.8374 40.8629 46.8374ZM9.13789 49.0874H20.3879C20.6863 49.0874 20.9724 48.9689 21.1834 48.7579C21.3944 48.5469 21.5129 48.2608 21.5129 47.9624C21.5129 47.664 21.3944 47.3779 21.1834 47.1669C20.9724 46.9559 20.6863 46.8374 20.3879 46.8374H9.13789C8.83952 46.8374 8.55338 46.9559 8.3424 47.1669C8.13142 47.3779 8.01289 47.664 8.01289 47.9624C8.01289 48.2608 8.13142 48.5469 8.3424 48.7579C8.55338 48.9689 8.83952 49.0874 9.13789 49.0874ZM9.13789 55.8374H40.8629C41.1613 55.8374 41.4474 55.7189 41.6584 55.5079C41.8694 55.2969 41.9879 55.0108 41.9879 54.7124C41.9879 54.414 41.8694 54.1279 41.6584 53.9169C41.4474 53.7059 41.1613 53.5874 40.8629 53.5874H9.13789C8.83952 53.5874 8.55338 53.7059 8.3424 53.9169C8.13142 54.1279 8.01289 54.414 8.01289 54.7124C8.01289 55.0108 8.13142 55.2969 8.3424 55.5079C8.55338 55.7189 8.83952 55.8374 9.13789 55.8374Z" fill="#061237"/>
</svg>
