<svg width="72" height="72" viewBox="0 0 72 72" fill="none" xmlns="http://www.w3.org/2000/svg">
<path d="M3.29316 68.9063H43.5427C43.8531 68.8932 44.147 68.763 44.3652 68.5419C44.5835 68.3207 44.7098 68.0251 44.7187 67.7146V64.6595C44.7111 63.7104 44.3442 62.7995 43.6919 62.1102C43.0396 61.4209 42.1503 61.0043 41.2031 60.9443V59.0398C41.2031 56.9854 39.5414 55.2657 37.4868 55.2657H9.34917C7.29464 55.2657 5.625 56.9854 5.625 59.0398V60.9444C4.67786 61.0044 3.78861 61.421 3.13629 62.1103C2.48398 62.7996 2.11704 63.7105 2.10938 64.6595V67.7144C2.12004 68.0257 2.24794 68.3216 2.46745 68.5426C2.68697 68.7636 2.9819 68.8936 3.29316 68.9063ZM9.34917 57.5157H37.4868C38.3006 57.5157 38.9531 58.226 38.9531 59.0398V60.8907H7.875V59.0398C7.87344 58.6437 8.02669 58.2627 8.30209 57.9779C8.57749 57.6932 8.95322 57.5273 9.34917 57.5157ZM4.35937 64.6595C4.37146 64.2577 4.53755 63.876 4.82326 63.5933C5.10897 63.3106 5.49244 63.1486 5.8943 63.1407H40.9417C41.3427 63.1488 41.7252 63.3112 42.0096 63.5941C42.294 63.8769 42.4584 64.2585 42.4687 64.6595V66.6563H4.35937V64.6595ZM14.9542 32.5992L26.7373 43.0219C26.848 43.1198 26.9768 43.195 27.1165 43.243C27.2562 43.2911 27.404 43.3112 27.5515 43.3022C27.699 43.2932 27.8432 43.2552 27.976 43.1904C28.1088 43.1256 28.2275 43.0353 28.3254 42.9246L32.1141 38.6413C32.3118 38.4179 32.4126 38.125 32.3944 37.8272C32.3761 37.5294 32.2404 37.2511 32.0169 37.0534L31.4875 36.5851C33.6439 35.5284 35.6671 34.219 37.5144 32.6846L43.4655 37.9486L43.0664 38.3999C42.8687 38.6233 42.768 38.9162 42.7862 39.214C42.8045 39.5118 42.9402 39.7901 43.1637 39.9878L59.346 54.3017C60.4946 55.3234 61.9789 55.8867 63.5161 55.8845C63.6473 55.8845 63.7786 55.8804 63.9098 55.8724C64.737 55.8239 65.5464 55.6119 66.291 55.2486C67.0357 54.8853 67.701 54.3779 68.2483 53.7558C69.3548 52.5021 69.9188 50.8606 69.8165 49.1915C69.7143 47.5225 68.9541 45.9621 67.7028 44.8529L51.5211 30.5395C51.2976 30.3418 51.0047 30.241 50.7069 30.2593C50.4091 30.2775 50.1308 30.4133 49.9331 30.6368L49.5339 31.0881L43.5828 25.824C44.8803 23.8033 45.933 21.6354 46.7187 19.3661L47.248 19.8343C47.4715 20.0319 47.7643 20.1328 48.0621 20.1145C48.3599 20.0963 48.6383 19.9605 48.836 19.7371L52.6248 15.4538C52.7227 15.3431 52.7978 15.2143 52.8459 15.0746C52.894 14.9349 52.9141 14.7871 52.9051 14.6396C52.896 14.4921 52.8581 14.3479 52.7933 14.2151C52.7285 14.0823 52.6382 13.9636 52.5275 13.8657L40.7441 3.44302C40.6335 3.34512 40.5046 3.26999 40.3649 3.2219C40.2252 3.17381 40.0774 3.15371 39.9299 3.16275C39.7825 3.17179 39.6382 3.20978 39.5054 3.27457C39.3726 3.33935 39.2539 3.42966 39.156 3.54033L35.3672 7.82363C35.2693 7.93429 35.1942 8.06315 35.1461 8.20285C35.098 8.34255 35.0779 8.49035 35.0869 8.63782C35.096 8.78529 35.134 8.92953 35.1987 9.06232C35.2635 9.1951 35.3538 9.31382 35.4645 9.4117L36.1291 9.99966C32.5836 11.7283 29.4135 14.1388 26.8001 17.0934C24.1867 20.0479 22.1813 23.4886 20.8984 27.2186L20.2337 26.6307C20.0102 26.433 19.7174 26.3322 19.4196 26.3504C19.1218 26.3686 18.8434 26.5044 18.6457 26.7278L14.8569 31.0113C14.6592 31.2348 14.5584 31.5276 14.5767 31.8254C14.5949 32.1232 14.7307 32.4015 14.9542 32.5992ZM66.5636 52.2656C66.2106 52.6648 65.7825 52.9905 65.3037 53.2242C64.8249 53.4578 64.3048 53.5949 63.773 53.6276C63.2412 53.6602 62.7082 53.5878 62.2044 53.4144C61.7006 53.2411 61.2359 52.9702 60.8368 52.6172L49.1649 42.2925L54.5408 36.2148L66.2127 46.5394C67.0174 47.2529 67.5062 48.2565 67.572 49.33C67.6377 50.4035 67.275 51.4592 66.5634 52.2656H66.5636ZM50.8731 32.9702L52.855 34.7234L47.4791 40.801L45.4963 39.0479L50.8731 32.9702ZM48.0431 32.7733L44.9563 36.2632L39.2026 31.1738C39.7621 30.6334 40.3001 30.0725 40.8165 29.4913C41.3312 28.9094 41.8222 28.3069 42.2895 27.6838L48.0431 32.7733ZM40.096 5.87372L50.1938 14.8057L47.8959 17.4037L37.7979 8.47177L40.096 5.87372ZM28.4856 18.5841C31.1165 15.6184 34.348 13.2459 37.9657 11.624L44.882 17.7412C43.7193 21.5322 41.7585 25.0303 39.1314 28.0004C36.5042 30.9706 33.2717 33.3438 29.6511 34.9607L22.7348 28.8435C23.9028 25.0548 25.8631 21.5576 28.4856 18.5841ZM19.5857 29.0607L29.6835 37.9928L27.3855 40.5907L17.2876 31.6587L19.5857 29.0607ZM4.5 44.4376H12.9375C13.2359 44.4376 13.522 44.3191 13.733 44.1081C13.944 43.8971 14.0625 43.611 14.0625 43.3126C14.0625 43.0142 13.944 42.7281 13.733 42.5171C13.522 42.3061 13.2359 42.1876 12.9375 42.1876H4.5C4.20163 42.1876 3.91548 42.3061 3.7045 42.5171C3.49353 42.7281 3.375 43.0142 3.375 43.3126C3.375 43.611 3.49353 43.8971 3.7045 44.1081C3.91548 44.3191 4.20163 44.4376 4.5 44.4376ZM8.47308 35.5675L13.948 38.4491C14.2121 38.5881 14.5205 38.6164 14.8055 38.528C15.0904 38.4396 15.3286 38.2415 15.4676 37.9775C15.6065 37.7135 15.6349 37.405 15.5465 37.1201C15.458 36.8351 15.26 36.5969 14.996 36.458L9.52102 33.5764C9.25698 33.4375 8.94855 33.4091 8.66358 33.4975C8.37862 33.586 8.14046 33.784 8.00149 34.048C7.86253 34.312 7.83414 34.6205 7.92258 34.9054C8.01102 35.1904 8.20904 35.4286 8.47308 35.5675ZM13.948 47.9842L8.47308 50.8656C8.20902 51.0045 8.01098 51.2427 7.92253 51.5277C7.83408 51.8127 7.86246 52.1211 8.00142 52.3852C8.14039 52.6492 8.37856 52.8473 8.66354 52.9357C8.94851 53.0242 9.25696 52.9958 9.52102 52.8568L14.996 49.9753C15.26 49.8363 15.458 49.5981 15.5465 49.3132C15.6349 49.0282 15.6065 48.7198 15.4676 48.4557C15.3286 48.1917 15.0904 47.9937 14.8055 47.9052C14.5205 47.8168 14.2121 47.8452 13.948 47.9842Z" fill="#061237"/>
</svg>
