<svg width="72" height="72" viewBox="0 0 72 72" fill="none" xmlns="http://www.w3.org/2000/svg">
<path d="M11.8579 33.8513C11.0817 33.8513 10.3279 33.5926 9.70917 33.0975C8.97792 32.5238 8.51667 31.7026 8.41542 30.7801C8.30292 29.8575 8.56167 28.9463 9.13542 28.215L24.8854 8.2688C25.2567 7.7963 25.9429 7.71755 26.4154 8.0888C26.8879 8.46005 26.9667 9.1463 26.5954 9.6188L10.8454 29.5651C10.6317 29.8351 10.5304 30.1725 10.5754 30.5213C10.6204 30.87 10.7892 31.1738 11.0592 31.3876C11.3292 31.6013 11.6667 31.7025 12.0154 31.6575C12.3642 31.6125 12.6679 31.4438 12.8817 31.1738L28.6429 11.2276C29.0142 10.7551 29.7004 10.6763 30.1729 11.0476C30.6454 11.4188 30.7242 12.1051 30.3529 12.5776L14.5917 32.5238C14.0179 33.255 13.1967 33.7163 12.2742 33.8175C12.1392 33.84 11.9929 33.8513 11.8579 33.8513Z" fill="#061237"/>
<path d="M29.2947 12.9938C28.2372 12.9938 27.2247 12.645 26.3809 11.9813C25.3909 11.1938 24.7609 10.08 24.6147 8.83128C24.4684 7.58253 24.8172 6.34503 25.5934 5.35503C26.3697 4.36503 27.4947 3.73503 28.7434 3.58878C29.9922 3.44253 31.2297 3.79128 32.2197 4.56753C33.2097 5.35503 33.8397 6.46878 33.9859 7.71753C34.1322 8.96628 33.7834 10.2038 33.0072 11.1938C32.2309 12.1838 31.1059 12.8138 29.8572 12.96C29.6659 12.9825 29.4859 12.9938 29.2947 12.9938ZM29.3172 5.73753C29.2159 5.73753 29.1147 5.73753 29.0134 5.76003C28.3384 5.83878 27.7422 6.17628 27.3147 6.70503C26.8984 7.23378 26.7072 7.89753 26.7859 8.57253C26.8647 9.24753 27.2022 9.84378 27.7309 10.2713C28.2597 10.6875 28.9234 10.8788 29.5984 10.8C30.2734 10.7213 30.8697 10.3838 31.2972 9.85503C31.7134 9.32628 31.9047 8.66253 31.8259 7.98753C31.7472 7.31253 31.4097 6.71628 30.8809 6.28878C30.4309 5.92878 29.8797 5.73753 29.3172 5.73753ZM60.1422 33.8513C60.0072 33.8513 59.8722 33.84 59.7259 33.8288C58.8034 33.7163 57.9822 33.255 57.4084 32.535L41.6472 12.5775C41.2759 12.105 41.3547 11.4188 41.8272 11.0475C42.2997 10.6763 42.9859 10.755 43.3572 11.2275L59.1184 31.1738C59.3322 31.4438 59.6359 31.6125 59.9847 31.6575C60.3222 31.7025 60.6709 31.6013 60.9409 31.3875C61.2109 31.1738 61.3797 30.87 61.4247 30.5213C61.4697 30.1838 61.3684 29.835 61.1547 29.565L45.4047 9.61878C45.0334 9.14628 45.1122 8.46003 45.5847 8.08878C46.0572 7.71753 46.7434 7.79628 47.1147 8.26878L62.8647 28.215C63.4384 28.9463 63.6972 29.8575 63.5847 30.78C63.4722 31.7025 63.0109 32.5238 62.2909 33.0975C61.6722 33.5925 60.9184 33.8513 60.1422 33.8513Z" fill="#061237"/>
<path d="M42.705 12.9938C42.5137 12.9938 42.3337 12.9825 42.1425 12.96C40.8937 12.8138 39.7687 12.1838 38.9925 11.1938C38.2163 10.2038 37.8563 8.96628 38.0138 7.71753C38.16 6.46878 38.79 5.34378 39.78 4.56753C40.77 3.79128 42.0075 3.44253 43.2563 3.58878C44.505 3.73503 45.63 4.36503 46.4062 5.35503C47.1825 6.34503 47.5425 7.58253 47.385 8.83128C47.2388 10.08 46.6087 11.205 45.6187 11.9813C44.775 12.645 43.7625 12.9938 42.705 12.9938ZM42.6825 5.73753C42.12 5.73753 41.5687 5.92878 41.1187 6.28878C40.59 6.70503 40.2525 7.31253 40.1737 7.98753C40.095 8.66253 40.2863 9.32628 40.7025 9.85503C41.1188 10.3838 41.7262 10.7213 42.4012 10.8C43.0762 10.8788 43.74 10.6875 44.2687 10.2713C44.7975 9.85503 45.135 9.24753 45.2137 8.57253C45.2925 7.89753 45.1012 7.23378 44.685 6.70503C44.2688 6.17628 43.6612 5.83878 42.9862 5.76003C42.885 5.74878 42.7837 5.73753 42.6825 5.73753ZM68.7262 37.89H3.27375C1.47375 37.89 0 36.4275 0 34.6163V30.4425C0 28.6425 1.4625 27.1688 3.27375 27.1688H10.4963C11.1038 27.1688 11.5875 27.6525 11.5875 28.26C11.5875 28.8675 11.1038 29.3513 10.4963 29.3513H3.27375C2.6775 29.3513 2.1825 29.835 2.1825 30.4425V34.6163C2.1825 35.2125 2.6775 35.7075 3.27375 35.7075H68.7262C69.3225 35.7075 69.8175 35.2238 69.8175 34.6163V30.4425C69.8175 29.835 69.3225 29.3513 68.7262 29.3513H61.4925C60.885 29.3513 60.4012 28.8675 60.4012 28.26C60.4012 27.6525 60.885 27.1688 61.4925 27.1688H68.7262C70.5263 27.1688 72 28.6313 72 30.4425V34.6163C72 36.4163 70.5375 37.89 68.7262 37.89Z" fill="#061237"/>
<path d="M55.4176 29.3402H16.5826C15.9751 29.3402 15.4914 28.8565 15.4914 28.249C15.4914 27.6415 15.9751 27.1577 16.5826 27.1577H55.4176C56.0251 27.1577 56.5089 27.6415 56.5089 28.249C56.5089 28.8565 56.0251 29.3402 55.4176 29.3402ZM57.8589 68.4452H14.1414C12.1276 68.4452 10.3839 67.084 9.91138 65.1265L2.94763 37.0577C2.80138 36.4727 3.16138 35.8765 3.74638 35.7302C4.32013 35.584 4.92763 35.944 5.06263 36.529L12.0264 64.5977C12.2626 65.5765 13.1401 66.2515 14.1414 66.2515H57.8589C58.8601 66.2515 59.7376 65.5652 59.9739 64.5977L66.9376 36.529C67.0839 35.944 67.6801 35.5952 68.2539 35.7302C68.8389 35.8765 69.1989 36.4727 69.0526 37.0577L62.0889 65.1265C61.6051 67.084 59.8726 68.4452 57.8589 68.4452Z" fill="#061237"/>
<path d="M35.9999 61.8636C34.1999 61.8636 32.7261 60.4011 32.7261 58.5899V44.1336C32.7261 42.3336 34.1886 40.8599 35.9999 40.8599C37.7999 40.8599 39.2736 42.3336 39.2736 44.1336V58.5899C39.2736 60.3899 37.7999 61.8636 35.9999 61.8636ZM35.9999 43.0424C35.4036 43.0424 34.9086 43.5261 34.9086 44.1336V58.5899C34.9086 59.1974 35.4036 59.6811 35.9999 59.6811C36.5961 59.6811 37.0911 59.1974 37.0911 58.5899V44.1336C37.0911 43.5261 36.6074 43.0424 35.9999 43.0424ZM48.7911 61.7736C48.5774 61.7736 48.3749 61.7511 48.1611 61.7174C47.3061 61.5486 46.5636 61.0536 46.0799 60.3336C45.5961 59.6136 45.4161 58.7361 45.5849 57.8811L48.3749 43.5936C48.5436 42.7386 49.0386 41.9961 49.7586 41.5011C50.4899 41.0174 51.3561 40.8374 52.2111 41.0061C53.9774 41.3549 55.1361 43.0761 54.7986 44.8424L52.0086 59.1299C51.7049 60.6599 50.3549 61.7736 48.7911 61.7736ZM51.5699 43.1211C51.3561 43.1211 51.1424 43.1886 50.9624 43.3124C50.7149 43.4699 50.5574 43.7174 50.5011 44.0099L47.7111 58.2974C47.6549 58.5786 47.7111 58.8711 47.8799 59.1186C48.0374 59.3549 48.2849 59.5236 48.5774 59.5799C49.1961 59.6924 49.7474 59.2986 49.8599 58.7136L52.6499 44.4261C52.7624 43.8411 52.3799 43.2561 51.7836 43.1436C51.7161 43.1324 51.6486 43.1211 51.5699 43.1211ZM23.2086 61.7736C21.6449 61.7736 20.2949 60.6599 20.0024 59.1299L17.2124 44.8424C16.8636 43.0761 18.0224 41.3549 19.7999 41.0061C20.6549 40.8374 21.5324 41.0174 22.2524 41.5011C22.9836 41.9849 23.4674 42.7274 23.6361 43.5936L26.4261 57.8811C26.5949 58.7361 26.4149 59.6136 25.9311 60.3336C25.4474 61.0536 24.7049 61.5486 23.8386 61.7174C23.6249 61.7624 23.4224 61.7736 23.2086 61.7736ZM20.4299 43.1211C20.3624 43.1211 20.2949 43.1324 20.2161 43.1436C19.6199 43.2561 19.2374 43.8299 19.3499 44.4261L22.1399 58.7136C22.2524 59.2986 22.8261 59.6924 23.4224 59.5799C23.7149 59.5236 23.9624 59.3549 24.1199 59.1186C24.2774 58.8824 24.3449 58.5899 24.2886 58.2974L21.4986 44.0099C21.4424 43.7286 21.2736 43.4811 21.0374 43.3124C20.8461 43.1886 20.6436 43.1211 20.4299 43.1211Z" fill="#061237"/>
</svg>
