<svg width="72" height="72" viewBox="0 0 72 72" fill="none" xmlns="http://www.w3.org/2000/svg">
<path d="M12.375 56.25H9C7.80653 56.25 6.66193 55.7759 5.81802 54.932C4.97411 54.0881 4.5 52.9435 4.5 51.75V42.75C4.5 41.5565 4.97411 40.4119 5.81802 39.568C6.66193 38.7241 7.80653 38.25 9 38.25H12.375C12.6734 38.25 12.9595 38.3685 13.1705 38.5795C13.3815 38.7905 13.5 39.0766 13.5 39.375V55.125C13.5 55.4234 13.3815 55.7095 13.1705 55.9205C12.9595 56.1315 12.6734 56.25 12.375 56.25ZM9 40.5C8.40326 40.5 7.83097 40.7371 7.40901 41.159C6.98705 41.581 6.75 42.1533 6.75 42.75V51.75C6.75 52.3467 6.98705 52.919 7.40901 53.341C7.83097 53.7629 8.40326 54 9 54H11.25V40.5H9Z" fill="#061237"/>
<path d="M15.75 59.625C14.5565 59.625 13.4119 59.1509 12.568 58.307C11.7241 57.4631 11.25 56.3185 11.25 55.125V39.375C11.25 38.1815 11.7241 37.0369 12.568 36.193C13.4119 35.3491 14.5565 34.875 15.75 34.875C16.9435 34.875 18.0881 35.3491 18.932 36.193C19.7759 37.0369 20.25 38.1815 20.25 39.375V55.125C20.25 56.3185 19.7759 57.4631 18.932 58.307C18.0881 59.1509 16.9435 59.625 15.75 59.625ZM15.75 37.125C15.1533 37.125 14.581 37.3621 14.159 37.784C13.7371 38.206 13.5 38.7783 13.5 39.375V55.125C13.5 55.7217 13.7371 56.294 14.159 56.716C14.581 57.1379 15.1533 57.375 15.75 57.375C16.3467 57.375 16.919 57.1379 17.341 56.716C17.7629 56.294 18 55.7217 18 55.125V39.375C18 38.7783 17.7629 38.206 17.341 37.784C16.919 37.3621 16.3467 37.125 15.75 37.125ZM63 56.25H59.625C59.3266 56.25 59.0405 56.1315 58.8295 55.9205C58.6185 55.7095 58.5 55.4234 58.5 55.125V39.375C58.5 39.0766 58.6185 38.7905 58.8295 38.5795C59.0405 38.3685 59.3266 38.25 59.625 38.25H63C64.1935 38.25 65.3381 38.7241 66.182 39.568C67.0259 40.4119 67.5 41.5565 67.5 42.75V51.75C67.5 52.9435 67.0259 54.0881 66.182 54.932C65.3381 55.7759 64.1935 56.25 63 56.25ZM60.75 54H63C63.5967 54 64.169 53.7629 64.591 53.341C65.0129 52.919 65.25 52.3467 65.25 51.75V42.75C65.25 42.1533 65.0129 41.581 64.591 41.159C64.169 40.7371 63.5967 40.5 63 40.5H60.75V54Z" fill="#061237"/>
<path d="M56.25 59.625C55.0565 59.625 53.9119 59.1509 53.068 58.307C52.2241 57.4631 51.75 56.3185 51.75 55.125V39.375C51.75 38.1815 52.2241 37.0369 53.068 36.193C53.9119 35.3491 55.0565 34.875 56.25 34.875C57.4435 34.875 58.5881 35.3491 59.432 36.193C60.2759 37.0369 60.75 38.1815 60.75 39.375V55.125C60.75 56.3185 60.2759 57.4631 59.432 58.307C58.5881 59.1509 57.4435 59.625 56.25 59.625ZM56.25 37.125C55.6533 37.125 55.081 37.3621 54.659 37.784C54.2371 38.206 54 38.7783 54 39.375V55.125C54 55.7217 54.2371 56.294 54.659 56.716C55.081 57.1379 55.6533 57.375 56.25 57.375C56.8467 57.375 57.419 57.1379 57.841 56.716C58.2629 56.294 58.5 55.7217 58.5 55.125V39.375C58.5 38.7783 58.2629 38.206 57.841 37.784C57.419 37.3621 56.8467 37.125 56.25 37.125ZM38.25 67.5H33.75C32.8549 67.5 31.9964 67.1444 31.3635 66.5115C30.7306 65.8785 30.375 65.0201 30.375 64.125C30.375 63.2299 30.7306 62.3715 31.3635 61.7385C31.9964 61.1056 32.8549 60.75 33.75 60.75H38.25C39.1451 60.75 40.0035 61.1056 40.6365 61.7385C41.2694 62.3715 41.625 63.2299 41.625 64.125C41.625 65.0201 41.2694 65.8785 40.6365 66.5115C40.0035 67.1444 39.1451 67.5 38.25 67.5ZM33.75 63C33.4516 63 33.1655 63.1185 32.9545 63.3295C32.7435 63.5405 32.625 63.8266 32.625 64.125C32.625 64.4234 32.7435 64.7095 32.9545 64.9205C33.1655 65.1315 33.4516 65.25 33.75 65.25H38.25C38.5484 65.25 38.8345 65.1315 39.0455 64.9205C39.2565 64.7095 39.375 64.4234 39.375 64.125C39.375 63.8266 39.2565 63.5405 39.0455 63.3295C38.8345 63.1185 38.5484 63 38.25 63H33.75Z" fill="#061237"/>
<path d="M56.25 65.2502H40.5C40.2016 65.2502 39.9155 65.1317 39.7045 64.9207C39.4935 64.7097 39.375 64.4236 39.375 64.1252C39.375 63.8268 39.4935 63.5407 39.7045 63.3297C39.9155 63.1187 40.2016 63.0002 40.5 63.0002H56.25C57.7418 63.0002 59.1726 62.4076 60.2275 61.3527C61.2824 60.2978 61.875 58.867 61.875 57.3752V55.1252C61.875 54.8268 61.9935 54.5407 62.2045 54.3297C62.4155 54.1187 62.7016 54.0002 63 54.0002C63.2984 54.0002 63.5845 54.1187 63.7955 54.3297C64.0065 54.5407 64.125 54.8268 64.125 55.1252V57.3752C64.125 59.4638 63.2953 61.4668 61.8185 62.9437C60.3416 64.4205 58.3386 65.2502 56.25 65.2502ZM61.875 40.5002C61.5766 40.5002 61.2905 40.3817 61.0795 40.1707C60.8685 39.9597 60.75 39.6736 60.75 39.3752V31.5002C60.7513 30.4204 60.6799 29.3417 60.5363 28.2714C60.517 28.1237 60.5271 27.9736 60.5659 27.8298C60.6047 27.6859 60.6715 27.5512 60.7623 27.4331C60.8532 27.3151 60.9665 27.2161 61.0956 27.1418C61.2248 27.0675 61.3673 27.0194 61.515 27.0002C61.6627 26.981 61.8128 26.9911 61.9566 27.0299C62.1005 27.0686 62.2353 27.1354 62.3533 27.2263C62.4714 27.3172 62.5704 27.4304 62.6446 27.5596C62.7189 27.6887 62.767 27.8312 62.7863 27.9789C62.9358 29.1466 63.0072 30.323 63 31.5002V39.3752C63 39.6736 62.8815 39.9597 62.6705 40.1707C62.4595 40.3817 62.1734 40.5002 61.875 40.5002ZM10.125 40.5002C9.82663 40.5002 9.54048 40.3817 9.32951 40.1707C9.11853 39.9597 9 39.6736 9 39.3752V31.5002C9.00027 30.3225 9.07919 29.1461 9.23625 27.9789C9.25546 27.8312 9.30357 27.6887 9.37785 27.5596C9.45213 27.4304 9.55112 27.3172 9.66917 27.2263C9.78722 27.1354 9.92201 27.0686 10.0658 27.0299C10.2097 26.9911 10.3598 26.981 10.5075 27.0002C10.6552 27.0194 10.7977 27.0675 10.9269 27.1418C11.056 27.2161 11.1693 27.3151 11.2602 27.4331C11.351 27.5512 11.4178 27.6859 11.4566 27.8298C11.4954 27.9736 11.5055 28.1237 11.4862 28.2714C11.3351 29.3412 11.2562 30.4199 11.25 31.5002V39.3752C11.25 39.6736 11.1315 39.9597 10.9205 40.1707C10.7095 40.3817 10.4234 40.5002 10.125 40.5002Z" fill="#061237"/>
<path d="M61.6504 29.2498C59.9106 29.225 58.2153 28.6964 56.7697 27.728C55.3242 26.7596 54.1903 25.393 53.5054 23.7935C52.0017 20.382 49.5336 17.4843 46.4048 15.457C43.2759 13.4296 39.6227 12.361 35.8946 12.3825C32.1664 12.404 28.5258 13.5147 25.4205 15.5781C22.3153 17.6414 19.8808 20.5674 18.4166 23.996C17.7849 25.535 16.714 26.8539 15.3376 27.7882C13.9611 28.7225 12.3401 29.2308 10.6766 29.2498H10.3504C10.1895 29.2512 10.0302 29.218 9.88319 29.1525C9.7362 29.0871 9.60497 28.9909 9.49834 28.8704C9.39171 28.7499 9.31217 28.6079 9.26508 28.4541C9.21799 28.3002 9.20445 28.1381 9.22537 27.9785C10.0891 21.4923 13.279 15.5404 18.2019 11.2296C23.1247 6.91881 29.4456 4.54248 35.9891 4.54248C42.5326 4.54248 48.8535 6.91881 53.7764 11.2296C58.6993 15.5404 61.8891 21.4923 62.7529 27.9785C62.7738 28.1381 62.7603 28.3002 62.7132 28.4541C62.6661 28.6079 62.5865 28.7499 62.4799 28.8704C62.3733 28.9909 62.242 29.0871 62.0951 29.1525C61.9481 29.218 61.7888 29.2512 61.6279 29.2498H61.6504ZM36.0004 6.74979C30.2323 6.74936 24.6452 8.76358 20.2043 12.4445C15.7634 16.1254 12.7476 21.2418 11.6779 26.9098C12.7113 26.7151 13.6796 26.2653 14.495 25.6012C15.3103 24.9371 15.9468 24.0799 16.3466 23.1073C17.7162 19.8901 19.854 17.058 22.5728 14.8593C25.2915 12.6606 28.5082 11.1624 31.9407 10.4962C35.3731 9.82987 38.9167 10.0158 42.2606 11.0377C45.6045 12.0595 48.6467 13.8861 51.1204 16.3573C53.0083 18.2289 54.534 20.4335 55.6204 22.8598C56.0446 23.8478 56.6954 24.7222 57.5201 25.4121C58.3449 26.102 59.3204 26.5881 60.3679 26.831C59.4261 21.965 57.0521 17.4912 53.5504 13.9835C51.2514 11.6736 48.5156 9.84443 45.5025 8.6025C42.4894 7.36057 39.2593 6.73076 36.0004 6.74979Z" fill="#061237"/>
</svg>
